<svg xmlns="http://www.w3.org/2000/svg" xmlns:xlink="http://www.w3.org/1999/xlink" width="500" zoomAndPan="magnify" viewBox="0 0 375 374.999991" height="500" preserveAspectRatio="xMidYMid meet" version="1.0"><defs><g/><clipPath id="f6bf7c65ff"><path d="M 188 65.539062 L 271.972656 65.539062 L 271.972656 149 L 188 149 Z M 188 65.539062 " clip-rule="nonzero"/></clipPath><clipPath id="f2ae2d1b62"><path d="M 103.222656 65.539062 L 187 65.539062 L 187 149 L 103.222656 149 Z M 103.222656 65.539062 " clip-rule="nonzero"/></clipPath><clipPath id="950b30a0fd"><path d="M 103.222656 150 L 187 150 L 187 233.539062 L 103.222656 233.539062 Z M 103.222656 150 " clip-rule="nonzero"/></clipPath><clipPath id="3eb6449043"><path d="M 188 150 L 271.972656 150 L 271.972656 233.539062 L 188 233.539062 Z M 188 150 " clip-rule="nonzero"/></clipPath><clipPath id="b7559cde19"><path d="M 215 65.539062 L 271.972656 65.539062 L 271.972656 122 L 215 122 Z M 215 65.539062 " clip-rule="nonzero"/></clipPath><clipPath id="78a4c1a3b1"><path d="M 103.222656 65.539062 L 160 65.539062 L 160 122 L 103.222656 122 Z M 103.222656 65.539062 " clip-rule="nonzero"/></clipPath><clipPath id="308a085a3b"><path d="M 103.222656 177 L 160 177 L 160 233.539062 L 103.222656 233.539062 Z M 103.222656 177 " clip-rule="nonzero"/></clipPath><clipPath id="7d208b744f"><path d="M 215 177 L 271.972656 177 L 271.972656 233.539062 L 215 233.539062 Z M 215 177 " clip-rule="nonzero"/></clipPath><clipPath id="12338626b0"><path d="M 228 65.539062 L 271.972656 65.539062 L 271.972656 110 L 228 110 Z M 228 65.539062 " clip-rule="nonzero"/></clipPath><clipPath id="9aa1105704"><path d="M 103.222656 65.539062 L 147 65.539062 L 147 110 L 103.222656 110 Z M 103.222656 65.539062 " clip-rule="nonzero"/></clipPath><clipPath id="8395491d08"><path d="M 103.222656 190 L 147 190 L 147 233.539062 L 103.222656 233.539062 Z M 103.222656 190 " clip-rule="nonzero"/></clipPath><clipPath id="6ce807158f"><path d="M 228 190 L 271.972656 190 L 271.972656 233.539062 L 228 233.539062 Z M 228 190 " clip-rule="nonzero"/></clipPath><clipPath id="69c21106ec"><path d="M 238 65.539062 L 271.972656 65.539062 L 271.972656 100 L 238 100 Z M 238 65.539062 " clip-rule="nonzero"/></clipPath><clipPath id="215364a911"><path d="M 103.222656 65.539062 L 137 65.539062 L 137 100 L 103.222656 100 Z M 103.222656 65.539062 " clip-rule="nonzero"/></clipPath><clipPath id="2e0b525f98"><path d="M 103.222656 200 L 137 200 L 137 233.539062 L 103.222656 233.539062 Z M 103.222656 200 " clip-rule="nonzero"/></clipPath><clipPath id="c8d70460d3"><path d="M 238 200 L 271.972656 200 L 271.972656 233.539062 L 238 233.539062 Z M 238 200 " clip-rule="nonzero"/></clipPath><clipPath id="33b60f7acc"><path d="M 246 65.539062 L 271.972656 65.539062 L 271.972656 91 L 246 91 Z M 246 65.539062 " clip-rule="nonzero"/></clipPath><clipPath id="3fd59394c5"><path d="M 103.222656 65.539062 L 129 65.539062 L 129 91 L 103.222656 91 Z M 103.222656 65.539062 " clip-rule="nonzero"/></clipPath><clipPath id="1de7b0f920"><path d="M 103.222656 209 L 129 209 L 129 233.539062 L 103.222656 233.539062 Z M 103.222656 209 " clip-rule="nonzero"/></clipPath><clipPath id="dce1447df2"><path d="M 246 209 L 271.972656 209 L 271.972656 233.539062 L 246 233.539062 Z M 246 209 " clip-rule="nonzero"/></clipPath><clipPath id="3b4fbd9543"><path d="M 254 65.539062 L 271.972656 65.539062 L 271.972656 83 L 254 83 Z M 254 65.539062 " clip-rule="nonzero"/></clipPath><clipPath id="b9758c9773"><path d="M 103.222656 65.539062 L 121 65.539062 L 121 83 L 103.222656 83 Z M 103.222656 65.539062 " clip-rule="nonzero"/></clipPath><clipPath id="6c974bc061"><path d="M 103.222656 217 L 121 217 L 121 233.539062 L 103.222656 233.539062 Z M 103.222656 217 " clip-rule="nonzero"/></clipPath><clipPath id="8a1feb3871"><path d="M 254 217 L 271.972656 217 L 271.972656 233.539062 L 254 233.539062 Z M 254 217 " clip-rule="nonzero"/></clipPath><clipPath id="2e0963ae25"><path d="M 262 65.539062 L 271.972656 65.539062 L 271.972656 75 L 262 75 Z M 262 65.539062 " clip-rule="nonzero"/></clipPath><clipPath id="f78982cb98"><path d="M 103.222656 65.539062 L 113 65.539062 L 113 75 L 103.222656 75 Z M 103.222656 65.539062 " clip-rule="nonzero"/></clipPath><clipPath id="dd6b1e5555"><path d="M 103.222656 224 L 113 224 L 113 233.539062 L 103.222656 233.539062 Z M 103.222656 224 " clip-rule="nonzero"/></clipPath><clipPath id="66fb06645a"><path d="M 262 224 L 271.972656 224 L 271.972656 233.539062 L 262 233.539062 Z M 262 224 " clip-rule="nonzero"/></clipPath></defs><rect x="-37.5" width="450" fill="#ffffff" y="-37.499999" height="449.999989" fill-opacity="1"/><rect x="-37.5" width="450" fill="#151f28" y="-37.499999" height="449.999989" fill-opacity="1"/><path fill="#bc9c22" d="M 265.664062 150.6875 C 265.121094 150.6875 264.6875 150.25 264.6875 149.710938 C 264.6875 107.148438 230.058594 72.519531 187.492188 72.519531 C 186.953125 72.519531 186.515625 72.082031 186.515625 71.542969 C 186.515625 71.007812 186.953125 70.570312 187.492188 70.570312 C 231.136719 70.570312 266.636719 106.074219 266.636719 149.714844 C 266.640625 150.246094 266.203125 150.6875 265.664062 150.6875 Z M 265.664062 150.6875 " fill-opacity="1" fill-rule="nonzero"/><path fill="#bc9c22" d="M 109.328125 150.6875 C 108.785156 150.6875 108.347656 150.25 108.347656 149.710938 C 108.347656 106.066406 143.855469 70.5625 187.496094 70.5625 C 188.039062 70.5625 188.476562 71 188.476562 71.539062 C 188.476562 72.074219 188.039062 72.511719 187.496094 72.511719 C 144.933594 72.515625 110.304688 107.144531 110.304688 149.707031 C 110.304688 150.246094 109.867188 150.6875 109.328125 150.6875 Z M 109.328125 150.6875 " fill-opacity="1" fill-rule="nonzero"/><path fill="#bc9c22" d="M 187.496094 228.851562 C 143.855469 228.851562 108.347656 193.347656 108.347656 149.707031 C 108.347656 149.171875 108.785156 148.734375 109.328125 148.734375 C 109.867188 148.734375 110.304688 149.171875 110.304688 149.707031 C 110.304688 192.273438 144.933594 226.898438 187.496094 226.898438 C 188.039062 226.898438 188.476562 227.335938 188.476562 227.875 C 188.476562 228.414062 188.039062 228.851562 187.496094 228.851562 Z M 187.496094 228.851562 " fill-opacity="1" fill-rule="nonzero"/><path fill="#bc9c22" d="M 187.496094 228.851562 C 186.957031 228.851562 186.519531 228.414062 186.519531 227.878906 C 186.519531 227.339844 186.957031 226.902344 187.496094 226.902344 C 230.0625 226.902344 264.6875 192.273438 264.6875 149.710938 C 264.6875 149.171875 265.125 148.738281 265.667969 148.738281 C 266.207031 148.738281 266.644531 149.171875 266.644531 149.710938 C 266.640625 193.347656 231.136719 228.851562 187.496094 228.851562 Z M 187.496094 228.851562 " fill-opacity="1" fill-rule="nonzero"/><g clip-path="url(#f6bf7c65ff)"><path fill="#bc9c22" d="M 270.550781 148.535156 C 270.023438 148.535156 269.585938 148.113281 269.578125 147.582031 C 268.453125 103.871094 233.332031 68.75 189.621094 67.632812 C 189.082031 67.617188 188.65625 67.167969 188.667969 66.628906 C 188.683594 66.09375 189.039062 65.753906 189.671875 65.679688 C 234.425781 66.820312 270.378906 102.78125 271.527344 147.53125 C 271.542969 148.070312 271.117188 148.519531 270.578125 148.535156 C 270.566406 148.535156 270.558594 148.535156 270.550781 148.535156 Z M 270.550781 148.535156 " fill-opacity="1" fill-rule="nonzero"/></g><g clip-path="url(#f2ae2d1b62)"><path fill="#bc9c22" d="M 104.441406 148.535156 C 104.4375 148.535156 104.425781 148.535156 104.414062 148.535156 C 103.878906 148.519531 103.449219 148.070312 103.464844 147.53125 C 104.613281 102.78125 140.570312 66.824219 185.320312 65.679688 C 185.332031 65.679688 185.339844 65.679688 185.347656 65.679688 C 185.875 65.679688 186.3125 66.097656 186.324219 66.628906 C 186.335938 67.167969 185.910156 67.617188 185.371094 67.632812 C 141.664062 68.75 106.539062 103.871094 105.417969 147.585938 C 105.40625 148.117188 104.96875 148.535156 104.441406 148.535156 Z M 104.441406 148.535156 " fill-opacity="1" fill-rule="nonzero"/></g><g clip-path="url(#950b30a0fd)"><path fill="#bc9c22" d="M 185.34375 233.738281 C 185.339844 233.738281 185.328125 233.738281 185.320312 233.738281 C 140.570312 232.589844 104.613281 196.636719 103.464844 151.886719 C 103.449219 151.347656 103.878906 150.898438 104.414062 150.882812 C 104.425781 150.882812 104.433594 150.882812 104.441406 150.882812 C 104.96875 150.882812 105.40625 151.304688 105.417969 151.835938 C 106.539062 195.546875 141.660156 230.667969 185.371094 231.789062 C 185.910156 231.804688 186.335938 232.253906 186.324219 232.792969 C 186.308594 233.320312 185.875 233.738281 185.34375 233.738281 Z M 185.34375 233.738281 " fill-opacity="1" fill-rule="nonzero"/></g><g clip-path="url(#3eb6449043)"><path fill="#bc9c22" d="M 189.644531 233.738281 C 189.117188 233.738281 188.679688 233.320312 188.667969 232.789062 C 188.65625 232.25 189.082031 231.800781 189.621094 231.789062 C 233.335938 230.664062 268.453125 195.546875 269.578125 151.832031 C 269.589844 151.292969 269.949219 150.863281 270.578125 150.878906 C 271.117188 150.894531 271.542969 151.34375 271.527344 151.882812 C 270.378906 196.636719 234.425781 232.589844 189.671875 233.738281 C 189.660156 233.738281 189.65625 233.738281 189.644531 233.738281 Z M 189.644531 233.738281 " fill-opacity="1" fill-rule="nonzero"/></g><g clip-path="url(#b7559cde19)"><path fill="#bc9c22" d="M 270.550781 121.683594 C 270.148438 121.683594 269.769531 121.433594 269.625 121.027344 C 260.984375 96.207031 241 76.222656 216.175781 67.578125 C 215.664062 67.398438 215.394531 66.839844 215.574219 66.335938 C 215.75 65.824219 216.308594 65.546875 216.816406 65.734375 C 242.203125 74.574219 262.632812 95.003906 271.472656 120.386719 C 271.648438 120.894531 271.382812 121.453125 270.871094 121.628906 C 270.765625 121.671875 270.660156 121.683594 270.550781 121.683594 Z M 270.550781 121.683594 " fill-opacity="1" fill-rule="nonzero"/></g><g clip-path="url(#78a4c1a3b1)"><path fill="#bc9c22" d="M 104.441406 121.683594 C 104.335938 121.683594 104.226562 121.667969 104.121094 121.628906 C 103.609375 121.453125 103.339844 120.894531 103.519531 120.386719 C 112.359375 95.003906 132.789062 74.574219 158.171875 65.734375 C 158.683594 65.550781 159.238281 65.824219 159.417969 66.335938 C 159.59375 66.839844 159.324219 67.398438 158.816406 67.578125 C 133.992188 76.222656 114.007812 96.207031 105.363281 121.027344 C 105.222656 121.433594 104.847656 121.683594 104.441406 121.683594 Z M 104.441406 121.683594 " fill-opacity="1" fill-rule="nonzero"/></g><g clip-path="url(#308a085a3b)"><path fill="#bc9c22" d="M 158.496094 233.738281 C 158.386719 233.738281 158.28125 233.722656 158.171875 233.6875 C 132.792969 224.847656 112.359375 204.417969 103.519531 179.03125 C 103.339844 178.523438 103.609375 177.964844 104.121094 177.789062 C 104.628906 177.601562 105.183594 177.878906 105.363281 178.390625 C 114.007812 203.210938 133.992188 223.195312 158.816406 231.839844 C 159.324219 232.019531 159.59375 232.578125 159.417969 233.085938 C 159.277344 233.488281 158.898438 233.738281 158.496094 233.738281 Z M 158.496094 233.738281 " fill-opacity="1" fill-rule="nonzero"/></g><g clip-path="url(#7d208b744f)"><path fill="#bc9c22" d="M 216.496094 233.738281 C 216.09375 233.738281 215.714844 233.488281 215.574219 233.085938 C 215.394531 232.578125 215.664062 232.019531 216.175781 231.839844 C 241 223.195312 260.980469 203.210938 269.628906 178.390625 C 269.808594 177.878906 270.367188 177.601562 270.875 177.789062 C 271.382812 177.964844 271.652344 178.523438 271.476562 179.03125 C 262.636719 204.417969 242.203125 224.847656 216.820312 233.6875 C 216.714844 233.722656 216.601562 233.738281 216.496094 233.738281 Z M 216.496094 233.738281 " fill-opacity="1" fill-rule="nonzero"/></g><g clip-path="url(#12338626b0)"><path fill="#bc9c22" d="M 270.554688 109.121094 C 270.195312 109.121094 269.847656 108.925781 269.679688 108.582031 C 260.847656 90.933594 246.269531 76.359375 228.625 67.53125 C 228.140625 67.289062 227.945312 66.699219 228.1875 66.21875 C 228.425781 65.734375 229.019531 65.546875 229.5 65.78125 C 247.515625 74.800781 262.40625 89.691406 271.425781 107.707031 C 271.667969 108.191406 271.472656 108.777344 270.988281 109.019531 C 270.851562 109.085938 270.699219 109.121094 270.554688 109.121094 Z M 270.554688 109.121094 " fill-opacity="1" fill-rule="nonzero"/></g><g clip-path="url(#9aa1105704)"><path fill="#bc9c22" d="M 104.4375 109.121094 C 104.292969 109.121094 104.144531 109.085938 104.003906 109.019531 C 103.519531 108.777344 103.324219 108.1875 103.566406 107.707031 C 112.582031 89.691406 127.472656 74.800781 145.492188 65.78125 C 145.976562 65.546875 146.5625 65.734375 146.800781 66.21875 C 147.042969 66.703125 146.847656 67.289062 146.363281 67.53125 C 128.722656 76.359375 114.148438 90.933594 105.316406 108.578125 C 105.144531 108.921875 104.800781 109.121094 104.4375 109.121094 Z M 104.4375 109.121094 " fill-opacity="1" fill-rule="nonzero"/></g><g clip-path="url(#8395491d08)"><path fill="#bc9c22" d="M 145.925781 233.738281 C 145.78125 233.738281 145.632812 233.707031 145.492188 233.640625 C 127.472656 224.621094 112.582031 209.730469 103.566406 191.714844 C 103.324219 191.230469 103.519531 190.644531 104.003906 190.402344 C 104.484375 190.167969 105.074219 190.355469 105.3125 190.839844 C 114.144531 208.484375 128.722656 223.0625 146.363281 231.886719 C 146.847656 232.128906 147.042969 232.71875 146.800781 233.199219 C 146.632812 233.546875 146.289062 233.738281 145.925781 233.738281 Z M 145.925781 233.738281 " fill-opacity="1" fill-rule="nonzero"/></g><g clip-path="url(#6ce807158f)"><path fill="#bc9c22" d="M 229.066406 233.738281 C 228.707031 233.738281 228.359375 233.546875 228.191406 233.203125 C 227.949219 232.71875 228.144531 232.132812 228.628906 231.890625 C 246.273438 223.0625 260.851562 208.484375 269.679688 190.84375 C 269.921875 190.359375 270.511719 190.171875 270.992188 190.40625 C 271.476562 190.648438 271.671875 191.238281 271.429688 191.71875 C 262.410156 209.734375 247.519531 224.625 229.503906 233.644531 C 229.363281 233.707031 229.210938 233.738281 229.066406 233.738281 Z M 229.066406 233.738281 " fill-opacity="1" fill-rule="nonzero"/></g><g clip-path="url(#69c21106ec)"><path fill="#bc9c22" d="M 270.554688 99.074219 C 270.226562 99.074219 269.910156 98.910156 269.722656 98.613281 C 261.910156 86.058594 251.144531 75.296875 238.59375 67.484375 C 238.132812 67.199219 237.996094 66.597656 238.28125 66.140625 C 238.566406 65.683594 239.171875 65.539062 239.628906 65.828125 C 252.429688 73.792969 263.410156 84.777344 271.382812 97.582031 C 271.671875 98.039062 271.527344 98.640625 271.070312 98.925781 C 270.90625 99.03125 270.730469 99.074219 270.554688 99.074219 Z M 270.554688 99.074219 " fill-opacity="1" fill-rule="nonzero"/></g><g clip-path="url(#215364a911)"><path fill="#bc9c22" d="M 104.4375 99.074219 C 104.265625 99.074219 104.082031 99.027344 103.925781 98.925781 C 103.464844 98.640625 103.328125 98.039062 103.613281 97.582031 C 111.589844 84.773438 122.570312 73.792969 135.371094 65.828125 C 135.832031 65.539062 136.433594 65.683594 136.714844 66.140625 C 137 66.597656 136.859375 67.199219 136.402344 67.484375 C 123.855469 75.296875 113.085938 86.0625 105.273438 98.613281 C 105.089844 98.910156 104.769531 99.074219 104.4375 99.074219 Z M 104.4375 99.074219 " fill-opacity="1" fill-rule="nonzero"/></g><g clip-path="url(#2e0b525f98)"><path fill="#bc9c22" d="M 135.882812 233.738281 C 135.710938 233.738281 135.527344 233.691406 135.371094 233.59375 C 122.566406 225.621094 111.585938 214.640625 103.613281 201.839844 C 103.328125 201.382812 103.46875 200.777344 103.925781 200.492188 C 104.382812 200.199219 104.984375 200.347656 105.269531 200.804688 C 113.085938 213.355469 123.847656 224.121094 136.398438 231.933594 C 136.859375 232.222656 136.996094 232.824219 136.710938 233.28125 C 136.53125 233.574219 136.210938 233.738281 135.882812 233.738281 Z M 135.882812 233.738281 " fill-opacity="1" fill-rule="nonzero"/></g><g clip-path="url(#c8d70460d3)"><path fill="#bc9c22" d="M 239.109375 233.738281 C 238.785156 233.738281 238.464844 233.578125 238.277344 233.28125 C 237.992188 232.824219 238.132812 232.222656 238.59375 231.933594 C 251.144531 224.117188 261.910156 213.355469 269.722656 200.804688 C 270.007812 200.347656 270.609375 200.199219 271.066406 200.492188 C 271.527344 200.777344 271.664062 201.382812 271.378906 201.839844 C 263.40625 214.640625 252.421875 225.621094 239.621094 233.59375 C 239.460938 233.691406 239.285156 233.738281 239.109375 233.738281 Z M 239.109375 233.738281 " fill-opacity="1" fill-rule="nonzero"/></g><g clip-path="url(#33b60f7acc)"><path fill="#bc9c22" d="M 270.554688 90.359375 C 270.25 90.359375 269.953125 90.21875 269.761719 89.957031 C 263.476562 81.300781 255.902344 73.730469 247.25 67.445312 C 246.8125 67.128906 246.71875 66.519531 247.035156 66.082031 C 247.351562 65.648438 247.964844 65.542969 248.398438 65.867188 C 257.214844 72.269531 264.9375 79.992188 271.34375 88.8125 C 271.660156 89.25 271.5625 89.859375 271.128906 90.175781 C 270.949219 90.300781 270.753906 90.359375 270.554688 90.359375 Z M 270.554688 90.359375 " fill-opacity="1" fill-rule="nonzero"/></g><g clip-path="url(#3fd59394c5)"><path fill="#bc9c22" d="M 104.4375 90.359375 C 104.242188 90.359375 104.039062 90.304688 103.863281 90.175781 C 103.425781 89.855469 103.332031 89.25 103.648438 88.8125 C 110.058594 79.992188 117.777344 72.269531 126.597656 65.863281 C 127.035156 65.539062 127.644531 65.644531 127.960938 66.078125 C 128.277344 66.515625 128.179688 67.128906 127.746094 67.445312 C 119.089844 73.730469 111.519531 81.304688 105.234375 89.957031 C 105.039062 90.21875 104.742188 90.359375 104.4375 90.359375 Z M 104.4375 90.359375 " fill-opacity="1" fill-rule="nonzero"/></g><g clip-path="url(#1de7b0f920)"><path fill="#bc9c22" d="M 127.167969 233.738281 C 126.96875 233.738281 126.769531 233.683594 126.59375 233.554688 C 117.777344 227.152344 110.054688 219.429688 103.648438 210.609375 C 103.332031 210.175781 103.429688 209.5625 103.863281 209.246094 C 104.300781 208.925781 104.914062 209.027344 105.230469 209.460938 C 111.515625 218.117188 119.085938 225.691406 127.738281 231.972656 C 128.175781 232.292969 128.269531 232.898438 127.953125 233.335938 C 127.769531 233.597656 127.472656 233.738281 127.167969 233.738281 Z M 127.167969 233.738281 " fill-opacity="1" fill-rule="nonzero"/></g><g clip-path="url(#dce1447df2)"><path fill="#bc9c22" d="M 247.824219 233.738281 C 247.523438 233.738281 247.222656 233.597656 247.03125 233.335938 C 246.714844 232.898438 246.8125 232.289062 247.246094 231.972656 C 255.898438 225.6875 263.476562 218.113281 269.757812 209.460938 C 270.074219 209.027344 270.683594 208.925781 271.121094 209.246094 C 271.558594 209.566406 271.652344 210.175781 271.335938 210.609375 C 264.929688 219.429688 257.210938 227.152344 248.394531 233.554688 C 248.226562 233.679688 248.023438 233.738281 247.824219 233.738281 Z M 247.824219 233.738281 " fill-opacity="1" fill-rule="nonzero"/></g><g clip-path="url(#3b4fbd9543)"><path fill="#bc9c22" d="M 270.550781 82.347656 C 270.269531 82.347656 269.988281 82.226562 269.792969 81.992188 C 265.429688 76.679688 260.523438 71.773438 255.214844 67.410156 C 254.796875 67.066406 254.734375 66.453125 255.078125 66.035156 C 255.421875 65.621094 256.039062 65.5625 256.453125 65.902344 C 261.863281 70.34375 266.855469 75.339844 271.304688 80.75 C 271.648438 81.167969 271.585938 81.78125 271.167969 82.125 C 270.992188 82.273438 270.769531 82.347656 270.550781 82.347656 Z M 270.550781 82.347656 " fill-opacity="1" fill-rule="nonzero"/></g><g clip-path="url(#b9758c9773)"><path fill="#bc9c22" d="M 104.441406 82.347656 C 104.222656 82.347656 104.003906 82.277344 103.820312 82.125 C 103.402344 81.78125 103.34375 81.167969 103.6875 80.75 C 108.132812 75.339844 113.132812 70.34375 118.535156 65.902344 C 118.953125 65.558594 119.570312 65.621094 119.910156 66.035156 C 120.253906 66.453125 120.195312 67.066406 119.777344 67.410156 C 114.46875 71.773438 109.5625 76.679688 105.195312 81.992188 C 105.003906 82.222656 104.726562 82.347656 104.441406 82.347656 Z M 104.441406 82.347656 " fill-opacity="1" fill-rule="nonzero"/></g><g clip-path="url(#6c974bc061)"><path fill="#bc9c22" d="M 119.160156 233.738281 C 118.941406 233.738281 118.722656 233.667969 118.535156 233.519531 C 113.128906 229.074219 108.132812 224.078125 103.6875 218.667969 C 103.34375 218.25 103.402344 217.636719 103.820312 217.292969 C 104.238281 216.949219 104.851562 217.007812 105.195312 217.429688 C 109.5625 222.738281 114.464844 227.644531 119.777344 232.007812 C 120.195312 232.351562 120.253906 232.96875 119.910156 233.382812 C 119.71875 233.617188 119.441406 233.738281 119.160156 233.738281 Z M 119.160156 233.738281 " fill-opacity="1" fill-rule="nonzero"/></g><g clip-path="url(#8a1feb3871)"><path fill="#bc9c22" d="M 255.835938 233.738281 C 255.554688 233.738281 255.273438 233.617188 255.078125 233.382812 C 254.734375 232.96875 254.796875 232.351562 255.214844 232.007812 C 260.523438 227.644531 265.429688 222.738281 269.792969 217.429688 C 270.136719 217.015625 270.757812 216.949219 271.167969 217.292969 C 271.585938 217.636719 271.648438 218.25 271.304688 218.667969 C 266.855469 224.078125 261.863281 229.074219 256.453125 233.519531 C 256.277344 233.667969 256.054688 233.738281 255.835938 233.738281 Z M 255.835938 233.738281 " fill-opacity="1" fill-rule="nonzero"/></g><g clip-path="url(#2e0963ae25)"><path fill="#bc9c22" d="M 270.550781 74.863281 C 270.285156 74.863281 270.023438 74.753906 269.832031 74.542969 C 267.566406 72.066406 265.152344 69.65625 262.660156 67.375 C 262.265625 67.011719 262.234375 66.390625 262.601562 65.996094 C 262.96875 65.59375 263.585938 65.570312 263.984375 65.929688 C 266.515625 68.25 268.972656 70.703125 271.273438 73.226562 C 271.640625 73.621094 271.609375 74.238281 271.214844 74.605469 C 271.023438 74.777344 270.785156 74.863281 270.550781 74.863281 Z M 270.550781 74.863281 " fill-opacity="1" fill-rule="nonzero"/></g><g clip-path="url(#f78982cb98)"><path fill="#bc9c22" d="M 104.441406 74.863281 C 104.207031 74.863281 103.972656 74.777344 103.785156 74.605469 C 103.386719 74.238281 103.355469 73.621094 103.722656 73.226562 C 106.027344 70.703125 108.480469 68.25 111.015625 65.929688 C 111.414062 65.570312 112.03125 65.59375 112.394531 65.996094 C 112.761719 66.390625 112.730469 67.011719 112.335938 67.375 C 109.839844 69.65625 107.429688 72.070312 105.160156 74.542969 C 104.96875 74.753906 104.707031 74.863281 104.441406 74.863281 Z M 104.441406 74.863281 " fill-opacity="1" fill-rule="nonzero"/></g><g clip-path="url(#dd6b1e5555)"><path fill="#bc9c22" d="M 111.671875 233.738281 C 111.4375 233.738281 111.203125 233.65625 111.015625 233.484375 C 108.492188 231.179688 106.042969 228.726562 103.722656 226.191406 C 103.355469 225.792969 103.386719 225.175781 103.785156 224.808594 C 104.183594 224.449219 104.800781 224.476562 105.164062 224.871094 C 107.445312 227.359375 109.859375 229.773438 112.335938 232.039062 C 112.730469 232.40625 112.761719 233.023438 112.394531 233.421875 C 112.199219 233.632812 111.9375 233.738281 111.671875 233.738281 Z M 111.671875 233.738281 " fill-opacity="1" fill-rule="nonzero"/></g><g clip-path="url(#66fb06645a)"><path fill="#bc9c22" d="M 263.320312 233.738281 C 263.054688 233.738281 262.792969 233.632812 262.601562 233.421875 C 262.234375 233.023438 262.265625 232.40625 262.660156 232.039062 C 265.140625 229.773438 267.550781 227.359375 269.832031 224.871094 C 270.199219 224.476562 270.8125 224.449219 271.214844 224.808594 C 271.609375 225.175781 271.640625 225.792969 271.273438 226.191406 C 268.953125 228.726562 266.5 231.179688 263.984375 233.484375 C 263.792969 233.65625 263.554688 233.738281 263.320312 233.738281 Z M 263.320312 233.738281 " fill-opacity="1" fill-rule="nonzero"/></g><g fill="#bc9c22" fill-opacity="1"><g transform="translate(145.936745, 190.324264)"><g><path d="M 41.5 1 C 50.59375 1 59.796875 -2.40625 66.703125 -9.5 L 64.40625 -11.5 C 58 -5.203125 49.90625 -2.09375 41.5 -2.09375 C 20.59375 -2.09375 9.296875 -17.09375 9 -34.703125 C 9 -52.59375 20.09375 -68 41.5 -68 C 49.90625 -68 58.09375 -65 64.5 -58.59375 L 66.703125 -60.703125 C 59.796875 -67.796875 50.703125 -71.09375 41.5 -71.09375 C 17.703125 -71.09375 5.5 -53.40625 5.796875 -34.59375 C 5.796875 -15.703125 18.59375 1 41.5 1 Z M 41.5 1 "/></g></g></g><g fill="#bc9c22" fill-opacity="1"><g transform="translate(115.62949, 283.804287)"><g><path d="M 3.09375 -0.390625 L 3.09375 -16.296875 L 1.25 -16.296875 L 1.25 0.03125 L 9.59375 0.03125 L 9.59375 -0.390625 Z M 3.09375 -0.390625 "/></g></g></g><g fill="#bc9c22" fill-opacity="1"><g transform="translate(128.834341, 283.804287)"><g><path d="M 13.125 -16.296875 L 13.125 -6.234375 C 13.125 -1.28125 10.609375 -0.1875 7.640625 -0.1875 C 3.25 -0.1875 3.015625 -4.15625 3.015625 -6 L 3.015625 -16.296875 L 1.171875 -16.296875 L 1.171875 -6 C 1.171875 -0.703125 4.1875 0.5 7.25 0.5 C 11.40625 0.5 13.578125 -1.71875 13.578125 -6 L 13.578125 -16.296875 Z M 13.125 -16.296875 "/></g></g></g><g fill="#bc9c22" fill-opacity="1"><g transform="translate(146.275922, 283.804287)"><g><path d="M 14.734375 -1.453125 C 14.734375 -1.453125 13 0.046875 9.984375 0.046875 C 7.078125 0.046875 2.9375 -1.25 2.9375 -8.09375 C 2.9375 -14.8125 7.46875 -16.203125 9.984375 -16.203125 C 13.046875 -16.203125 14.734375 -14.96875 14.734375 -14.96875 L 14.734375 -15.546875 C 14.734375 -15.546875 12.953125 -16.609375 9.984375 -16.609375 C 5.296875 -16.609375 1.046875 -14.125 1.046875 -8.09375 C 1.046875 -1.140625 6.46875 0.5 9.75 0.5 C 13 0.5 14.734375 -0.890625 14.734375 -0.890625 Z M 14.734375 -1.453125 "/></g></g></g><g fill="#bc9c22" fill-opacity="1"><g transform="translate(164.731198, 283.804287)"><g><path d="M 13.59375 0.03125 L 15.59375 0.03125 L 8.453125 -16.609375 L 8.3125 -16.609375 L 0.90625 0.03125 L 1.484375 0.03125 L 4.421875 -6.53125 L 10.765625 -6.53125 Z M 4.609375 -6.96875 L 7.640625 -13.8125 L 10.578125 -6.96875 Z M 4.609375 -6.96875 "/></g></g></g><g fill="#bc9c22" fill-opacity="1"><g transform="translate(183.862268, 283.804287)"><g/></g></g><g fill="#bc9c22" fill-opacity="1"><g transform="translate(192.960349, 283.804287)"><g><path d="M 15.265625 0.03125 C 14.484375 -0.984375 13.359375 -2.390625 12.21875 -3.875 C 13.625 -5.984375 14.359375 -8.03125 14.359375 -8.03125 L 13.8125 -8.03125 C 13.8125 -8.03125 13.125 -6.1875 11.90625 -4.296875 C 10.34375 -6.3125 8.734375 -8.421875 7.640625 -9.796875 C 8.375 -10.21875 9.09375 -10.6875 9.703125 -11.125 C 10.71875 -11.90625 11.34375 -12.65625 11.34375 -13.96875 C 11.34375 -15.578125 10.140625 -16.796875 7.828125 -16.796875 C 5.203125 -16.796875 3.828125 -15.28125 3.828125 -13.390625 C 3.828125 -12.375 4.234375 -11.234375 5.046875 -10.140625 C 5.25 -9.90625 5.453125 -9.625 5.71875 -9.28125 C 3.40625 -7.984375 0.9375 -6.390625 0.9375 -3.59375 C 0.9375 -1.4375 2.578125 0.515625 5.828125 0.515625 C 7.953125 0.515625 9.71875 -0.78125 11.078125 -2.34375 C 11.796875 -1.40625 12.453125 -0.578125 12.890625 0.03125 Z M 7.828125 -16.359375 C 9.3125 -16.359375 10.21875 -15.109375 10.21875 -13.734375 C 10.21875 -13.1875 10.0625 -12.578125 9.75 -12.03125 C 9.328125 -11.390625 8.390625 -10.796875 7.359375 -10.1875 C 7.015625 -10.609375 6.765625 -10.953125 6.609375 -11.1875 C 5.796875 -12.21875 5.453125 -13.1875 5.453125 -13.984375 C 5.453125 -15.4375 6.546875 -16.359375 7.828125 -16.359375 Z M 8.234375 -0.671875 C 7.59375 -0.359375 6.9375 -0.234375 6.3125 -0.234375 C 4.765625 -0.234375 3.4375 -1.140625 2.890625 -2.65625 C 2.671875 -3.28125 2.578125 -3.875 2.578125 -4.453125 C 2.578125 -5.828125 3.21875 -7.046875 4.609375 -8.03125 C 4.90625 -8.296875 5.5625 -8.65625 6 -8.890625 C 7.3125 -7.203125 9.203125 -4.78125 10.765625 -2.734375 C 10.03125 -1.875 9.203125 -1.125 8.234375 -0.671875 Z M 8.234375 -0.671875 "/></g></g></g><g fill="#bc9c22" fill-opacity="1"><g transform="translate(211.675547, 283.804287)"><g/></g></g><g fill="#bc9c22" fill-opacity="1"><g transform="translate(220.773633, 283.804287)"><g><path d="M 14.734375 -1.453125 C 14.734375 -1.453125 13 0.046875 9.984375 0.046875 C 7.078125 0.046875 2.9375 -1.25 2.9375 -8.09375 C 2.9375 -14.8125 7.46875 -16.203125 9.984375 -16.203125 C 13.046875 -16.203125 14.734375 -14.96875 14.734375 -14.96875 L 14.734375 -15.546875 C 14.734375 -15.546875 12.953125 -16.609375 9.984375 -16.609375 C 5.296875 -16.609375 1.046875 -14.125 1.046875 -8.09375 C 1.046875 -1.140625 6.46875 0.5 9.75 0.5 C 13 0.5 14.734375 -0.890625 14.734375 -0.890625 Z M 14.734375 -1.453125 "/></g></g></g><g fill="#bc9c22" fill-opacity="1"><g transform="translate(239.228912, 283.804287)"><g><path d="M 9.984375 -16.609375 C 5.296875 -16.609375 1.046875 -14.125 1.046875 -8.09375 C 1.046875 -1.140625 6.703125 0.5 9.984375 0.5 C 13.234375 0.5 18.921875 -1.140625 18.921875 -8.09375 C 18.921875 -14.125 14.640625 -16.609375 9.984375 -16.609375 Z M 9.984375 0.046875 C 7.046875 0.046875 2.9375 -1.25 2.9375 -8.09375 C 2.9375 -14.8125 7.46875 -16.203125 9.984375 -16.203125 C 12.5 -16.203125 17.03125 -14.8125 17.03125 -8.09375 C 17.03125 -1.25 12.890625 0.046875 9.984375 0.046875 Z M 9.984375 0.046875 "/></g></g></g><g fill="#bc9c22" fill-opacity="1"><g transform="translate(130.132747, 299.187742)"><g><path d="M 0.875 -5.59375 L 3 -5.59375 C 3.25 -5.59375 3.476562 -5.550781 3.6875 -5.46875 C 3.90625 -5.382812 4.085938 -5.269531 4.234375 -5.125 C 4.390625 -4.976562 4.507812 -4.800781 4.59375 -4.59375 C 4.675781 -4.394531 4.71875 -4.179688 4.71875 -3.953125 C 4.71875 -3.796875 4.695312 -3.648438 4.65625 -3.515625 C 4.625 -3.390625 4.578125 -3.273438 4.515625 -3.171875 C 4.460938 -3.066406 4.398438 -2.972656 4.328125 -2.890625 C 4.253906 -2.816406 4.175781 -2.753906 4.09375 -2.703125 C 3.914062 -2.554688 3.710938 -2.457031 3.484375 -2.40625 L 4.84375 0 L 4.40625 0 L 3.078125 -2.3125 L 1.28125 -2.3125 L 1.28125 0 L 0.875 0 Z M 3 -2.71875 C 3.195312 -2.71875 3.375 -2.75 3.53125 -2.8125 C 3.695312 -2.875 3.835938 -2.957031 3.953125 -3.0625 C 4.078125 -3.175781 4.164062 -3.304688 4.21875 -3.453125 C 4.28125 -3.609375 4.3125 -3.773438 4.3125 -3.953125 C 4.3125 -4.140625 4.28125 -4.304688 4.21875 -4.453125 C 4.164062 -4.609375 4.078125 -4.738281 3.953125 -4.84375 C 3.835938 -4.957031 3.695312 -5.046875 3.53125 -5.109375 C 3.375 -5.171875 3.195312 -5.203125 3 -5.203125 L 1.28125 -5.203125 L 1.28125 -2.71875 Z M 3 -2.71875 "/></g></g></g><g fill="#bc9c22" fill-opacity="1"><g transform="translate(138.612972, 299.187742)"><g><path d="M 0.875 -5.59375 L 4.640625 -5.59375 L 4.640625 -5.203125 L 1.28125 -5.203125 L 1.28125 -3.125 L 4 -3.125 L 4 -2.71875 L 1.28125 -2.71875 L 1.28125 -0.40625 L 4.71875 -0.40625 L 4.71875 0 L 0.875 0 Z M 0.875 -5.59375 "/></g></g></g><g fill="#bc9c22" fill-opacity="1"><g transform="translate(146.853191, 299.187742)"><g><path d="M 0.875 -5.59375 L 1.28125 -5.59375 L 1.28125 -0.40625 L 4.28125 -0.40625 L 4.28125 0 L 0.875 0 Z M 0.875 -5.59375 "/></g></g></g><g fill="#bc9c22" fill-opacity="1"><g transform="translate(154.493391, 299.187742)"><g><path d="M 3.3125 0.078125 C 2.925781 0.078125 2.5625 0.00390625 2.21875 -0.140625 C 1.875 -0.296875 1.570312 -0.503906 1.3125 -0.765625 C 1.050781 -1.023438 0.847656 -1.328125 0.703125 -1.671875 C 0.554688 -2.023438 0.484375 -2.398438 0.484375 -2.796875 C 0.484375 -3.203125 0.554688 -3.578125 0.703125 -3.921875 C 0.847656 -4.273438 1.050781 -4.582031 1.3125 -4.84375 C 1.570312 -5.101562 1.875 -5.304688 2.21875 -5.453125 C 2.5625 -5.609375 2.925781 -5.6875 3.3125 -5.6875 C 3.707031 -5.6875 4.078125 -5.609375 4.421875 -5.453125 C 4.765625 -5.304688 5.066406 -5.101562 5.328125 -4.84375 C 5.585938 -4.582031 5.789062 -4.273438 5.9375 -3.921875 C 6.082031 -3.578125 6.15625 -3.203125 6.15625 -2.796875 C 6.15625 -2.398438 6.082031 -2.023438 5.9375 -1.671875 C 5.789062 -1.328125 5.585938 -1.023438 5.328125 -0.765625 C 5.066406 -0.503906 4.765625 -0.296875 4.421875 -0.140625 C 4.078125 0.00390625 3.707031 0.078125 3.3125 0.078125 Z M 3.3125 -0.3125 C 3.65625 -0.3125 3.972656 -0.375 4.265625 -0.5 C 4.566406 -0.632812 4.828125 -0.8125 5.046875 -1.03125 C 5.265625 -1.257812 5.4375 -1.519531 5.5625 -1.8125 C 5.695312 -2.113281 5.765625 -2.441406 5.765625 -2.796875 C 5.765625 -3.148438 5.695312 -3.476562 5.5625 -3.78125 C 5.4375 -4.082031 5.265625 -4.34375 5.046875 -4.5625 C 4.828125 -4.78125 4.566406 -4.953125 4.265625 -5.078125 C 3.972656 -5.210938 3.65625 -5.28125 3.3125 -5.28125 C 2.976562 -5.28125 2.660156 -5.210938 2.359375 -5.078125 C 2.066406 -4.953125 1.804688 -4.78125 1.578125 -4.5625 C 1.359375 -4.34375 1.1875 -4.082031 1.0625 -3.78125 C 0.9375 -3.476562 0.875 -3.148438 0.875 -2.796875 C 0.875 -2.441406 0.9375 -2.113281 1.0625 -1.8125 C 1.1875 -1.519531 1.359375 -1.257812 1.578125 -1.03125 C 1.804688 -0.8125 2.066406 -0.632812 2.359375 -0.5 C 2.660156 -0.375 2.976562 -0.3125 3.3125 -0.3125 Z M 3.3125 -0.3125 "/></g></g></g><g fill="#bc9c22" fill-opacity="1"><g transform="translate(164.33365, 299.187742)"><g><path d="M 1.40625 0.078125 C 1.1875 0.078125 0.992188 0.046875 0.828125 -0.015625 C 0.671875 -0.078125 0.535156 -0.144531 0.421875 -0.21875 C 0.285156 -0.3125 0.171875 -0.410156 0.078125 -0.515625 L 0.359375 -0.796875 C 0.429688 -0.703125 0.519531 -0.625 0.625 -0.5625 C 0.71875 -0.5 0.828125 -0.441406 0.953125 -0.390625 C 1.078125 -0.335938 1.226562 -0.3125 1.40625 -0.3125 C 1.59375 -0.3125 1.765625 -0.34375 1.921875 -0.40625 C 2.078125 -0.46875 2.210938 -0.554688 2.328125 -0.671875 C 2.441406 -0.796875 2.53125 -0.9375 2.59375 -1.09375 C 2.65625 -1.257812 2.6875 -1.441406 2.6875 -1.640625 L 2.6875 -5.59375 L 3.078125 -5.59375 L 3.078125 -1.640625 C 3.078125 -1.390625 3.035156 -1.15625 2.953125 -0.9375 C 2.867188 -0.726562 2.75 -0.546875 2.59375 -0.390625 C 2.445312 -0.242188 2.269531 -0.128906 2.0625 -0.046875 C 1.863281 0.0351562 1.644531 0.078125 1.40625 0.078125 Z M 1.40625 0.078125 "/></g></g></g><g fill="#bc9c22" fill-opacity="1"><g transform="translate(171.413829, 299.187742)"><g><path d="M 0.875 -5.59375 L 4.640625 -5.59375 L 4.640625 -5.203125 L 1.28125 -5.203125 L 1.28125 -3.125 L 4 -3.125 L 4 -2.71875 L 1.28125 -2.71875 L 1.28125 -0.40625 L 4.71875 -0.40625 L 4.71875 0 L 0.875 0 Z M 0.875 -5.59375 "/></g></g></g><g fill="#bc9c22" fill-opacity="1"><g transform="translate(179.65405, 299.187742)"><g><path d="M 2.203125 0.078125 C 1.890625 0.078125 1.617188 0.0351562 1.390625 -0.046875 C 1.160156 -0.128906 0.96875 -0.226562 0.8125 -0.34375 C 0.632812 -0.457031 0.484375 -0.597656 0.359375 -0.765625 L 0.640625 -1.046875 C 0.742188 -0.898438 0.867188 -0.78125 1.015625 -0.6875 C 1.140625 -0.59375 1.300781 -0.503906 1.5 -0.421875 C 1.695312 -0.347656 1.929688 -0.3125 2.203125 -0.3125 C 2.679688 -0.3125 3.039062 -0.421875 3.28125 -0.640625 C 3.519531 -0.859375 3.640625 -1.140625 3.640625 -1.484375 C 3.640625 -1.671875 3.59375 -1.828125 3.5 -1.953125 C 3.414062 -2.078125 3.300781 -2.179688 3.15625 -2.265625 C 3.007812 -2.359375 2.84375 -2.4375 2.65625 -2.5 C 2.46875 -2.5625 2.273438 -2.625 2.078125 -2.6875 C 1.878906 -2.75 1.6875 -2.816406 1.5 -2.890625 C 1.3125 -2.972656 1.144531 -3.070312 1 -3.1875 C 0.863281 -3.300781 0.75 -3.4375 0.65625 -3.59375 C 0.5625 -3.757812 0.515625 -3.960938 0.515625 -4.203125 C 0.515625 -4.398438 0.554688 -4.585938 0.640625 -4.765625 C 0.722656 -4.953125 0.835938 -5.109375 0.984375 -5.234375 C 1.140625 -5.367188 1.328125 -5.476562 1.546875 -5.5625 C 1.765625 -5.644531 2.007812 -5.6875 2.28125 -5.6875 C 2.539062 -5.6875 2.769531 -5.648438 2.96875 -5.578125 C 3.164062 -5.503906 3.332031 -5.421875 3.46875 -5.328125 C 3.632812 -5.234375 3.769531 -5.125 3.875 -5 L 3.59375 -4.71875 C 3.507812 -4.820312 3.398438 -4.914062 3.265625 -5 C 3.160156 -5.070312 3.023438 -5.132812 2.859375 -5.1875 C 2.691406 -5.25 2.5 -5.28125 2.28125 -5.28125 C 2.0625 -5.28125 1.863281 -5.25 1.6875 -5.1875 C 1.519531 -5.132812 1.378906 -5.054688 1.265625 -4.953125 C 1.148438 -4.859375 1.0625 -4.742188 1 -4.609375 C 0.945312 -4.484375 0.921875 -4.347656 0.921875 -4.203125 C 0.921875 -4.003906 0.960938 -3.84375 1.046875 -3.71875 C 1.140625 -3.59375 1.257812 -3.484375 1.40625 -3.390625 C 1.550781 -3.304688 1.71875 -3.234375 1.90625 -3.171875 C 2.09375 -3.109375 2.285156 -3.046875 2.484375 -2.984375 C 2.679688 -2.921875 2.875 -2.851562 3.0625 -2.78125 C 3.25 -2.707031 3.410156 -2.613281 3.546875 -2.5 C 3.691406 -2.382812 3.8125 -2.242188 3.90625 -2.078125 C 4 -1.921875 4.046875 -1.722656 4.046875 -1.484375 C 4.046875 -1.265625 4.003906 -1.054688 3.921875 -0.859375 C 3.835938 -0.671875 3.710938 -0.503906 3.546875 -0.359375 C 3.390625 -0.222656 3.195312 -0.113281 2.96875 -0.03125 C 2.738281 0.0390625 2.484375 0.078125 2.203125 0.078125 Z M 2.203125 0.078125 "/></g></g></g><g fill="#bc9c22" fill-opacity="1"><g transform="translate(187.33425, 299.187742)"><g/></g></g><g fill="#bc9c22" fill-opacity="1"><g transform="translate(192.134373, 299.187742)"><g><path d="M 0.875 -5.59375 L 2.515625 -5.59375 C 2.941406 -5.59375 3.332031 -5.519531 3.6875 -5.375 C 4.039062 -5.226562 4.347656 -5.03125 4.609375 -4.78125 C 4.867188 -4.53125 5.070312 -4.234375 5.21875 -3.890625 C 5.363281 -3.554688 5.4375 -3.191406 5.4375 -2.796875 C 5.4375 -2.410156 5.363281 -2.046875 5.21875 -1.703125 C 5.070312 -1.359375 4.867188 -1.0625 4.609375 -0.8125 C 4.347656 -0.5625 4.039062 -0.363281 3.6875 -0.21875 C 3.332031 -0.0703125 2.941406 0 2.515625 0 L 0.875 0 Z M 2.515625 -0.40625 C 2.890625 -0.40625 3.226562 -0.460938 3.53125 -0.578125 C 3.84375 -0.703125 4.109375 -0.875 4.328125 -1.09375 C 4.554688 -1.3125 4.734375 -1.5625 4.859375 -1.84375 C 4.984375 -2.132812 5.046875 -2.453125 5.046875 -2.796875 C 5.046875 -3.140625 4.984375 -3.457031 4.859375 -3.75 C 4.734375 -4.039062 4.554688 -4.289062 4.328125 -4.5 C 4.109375 -4.71875 3.84375 -4.890625 3.53125 -5.015625 C 3.226562 -5.140625 2.890625 -5.203125 2.515625 -5.203125 L 1.28125 -5.203125 L 1.28125 -0.40625 Z M 2.515625 -0.40625 "/></g></g></g><g fill="#bc9c22" fill-opacity="1"><g transform="translate(201.254618, 299.187742)"><g><path d="M 0.875 -5.59375 L 4.640625 -5.59375 L 4.640625 -5.203125 L 1.28125 -5.203125 L 1.28125 -3.125 L 4 -3.125 L 4 -2.71875 L 1.28125 -2.71875 L 1.28125 -0.40625 L 4.71875 -0.40625 L 4.71875 0 L 0.875 0 Z M 0.875 -5.59375 "/></g></g></g><g fill="#bc9c22" fill-opacity="1"><g transform="translate(209.494839, 299.187742)"><g/></g></g><g fill="#bc9c22" fill-opacity="1"><g transform="translate(214.294962, 299.187742)"><g><path d="M 0.875 -5.59375 L 1.28125 -5.59375 L 1.28125 -0.40625 L 4.28125 -0.40625 L 4.28125 0 L 0.875 0 Z M 0.875 -5.59375 "/></g></g></g><g fill="#bc9c22" fill-opacity="1"><g transform="translate(221.935163, 299.187742)"><g><path d="M 3 0.078125 C 2.6875 0.078125 2.394531 0.0234375 2.125 -0.078125 C 1.863281 -0.191406 1.632812 -0.347656 1.4375 -0.546875 C 1.238281 -0.753906 1.082031 -0.992188 0.96875 -1.265625 C 0.851562 -1.546875 0.796875 -1.84375 0.796875 -2.15625 L 0.796875 -5.59375 L 1.203125 -5.59375 L 1.203125 -2.15625 C 1.203125 -1.882812 1.242188 -1.632812 1.328125 -1.40625 C 1.421875 -1.1875 1.546875 -0.992188 1.703125 -0.828125 C 1.867188 -0.671875 2.0625 -0.546875 2.28125 -0.453125 C 2.5 -0.359375 2.738281 -0.3125 3 -0.3125 C 3.257812 -0.3125 3.5 -0.359375 3.71875 -0.453125 C 3.9375 -0.546875 4.125 -0.671875 4.28125 -0.828125 C 4.445312 -0.992188 4.570312 -1.1875 4.65625 -1.40625 C 4.75 -1.632812 4.796875 -1.882812 4.796875 -2.15625 L 4.796875 -5.59375 L 5.203125 -5.59375 L 5.203125 -2.15625 C 5.203125 -1.84375 5.144531 -1.546875 5.03125 -1.265625 C 4.914062 -0.992188 4.757812 -0.753906 4.5625 -0.546875 C 4.363281 -0.347656 4.128906 -0.191406 3.859375 -0.078125 C 3.597656 0.0234375 3.3125 0.078125 3 0.078125 Z M 3 0.078125 "/></g></g></g><g fill="#bc9c22" fill-opacity="1"><g transform="translate(231.135406, 299.187742)"><g><path d="M 1.40625 0.078125 C 1.1875 0.078125 0.992188 0.046875 0.828125 -0.015625 C 0.671875 -0.078125 0.535156 -0.144531 0.421875 -0.21875 C 0.285156 -0.3125 0.171875 -0.410156 0.078125 -0.515625 L 0.359375 -0.796875 C 0.429688 -0.703125 0.519531 -0.625 0.625 -0.5625 C 0.71875 -0.5 0.828125 -0.441406 0.953125 -0.390625 C 1.078125 -0.335938 1.226562 -0.3125 1.40625 -0.3125 C 1.59375 -0.3125 1.765625 -0.34375 1.921875 -0.40625 C 2.078125 -0.46875 2.210938 -0.554688 2.328125 -0.671875 C 2.441406 -0.796875 2.53125 -0.9375 2.59375 -1.09375 C 2.65625 -1.257812 2.6875 -1.441406 2.6875 -1.640625 L 2.6875 -5.59375 L 3.078125 -5.59375 L 3.078125 -1.640625 C 3.078125 -1.390625 3.035156 -1.15625 2.953125 -0.9375 C 2.867188 -0.726562 2.75 -0.546875 2.59375 -0.390625 C 2.445312 -0.242188 2.269531 -0.128906 2.0625 -0.046875 C 1.863281 0.0351562 1.644531 0.078125 1.40625 0.078125 Z M 1.40625 0.078125 "/></g></g></g><g fill="#bc9c22" fill-opacity="1"><g transform="translate(238.215588, 299.187742)"><g><path d="M 3.3125 0.078125 C 2.925781 0.078125 2.5625 0.00390625 2.21875 -0.140625 C 1.875 -0.296875 1.570312 -0.503906 1.3125 -0.765625 C 1.050781 -1.023438 0.847656 -1.328125 0.703125 -1.671875 C 0.554688 -2.023438 0.484375 -2.398438 0.484375 -2.796875 C 0.484375 -3.203125 0.554688 -3.578125 0.703125 -3.921875 C 0.847656 -4.273438 1.050781 -4.582031 1.3125 -4.84375 C 1.570312 -5.101562 1.875 -5.304688 2.21875 -5.453125 C 2.5625 -5.609375 2.925781 -5.6875 3.3125 -5.6875 C 3.707031 -5.6875 4.078125 -5.609375 4.421875 -5.453125 C 4.765625 -5.304688 5.066406 -5.101562 5.328125 -4.84375 C 5.585938 -4.582031 5.789062 -4.273438 5.9375 -3.921875 C 6.082031 -3.578125 6.15625 -3.203125 6.15625 -2.796875 C 6.15625 -2.398438 6.082031 -2.023438 5.9375 -1.671875 C 5.789062 -1.328125 5.585938 -1.023438 5.328125 -0.765625 C 5.066406 -0.503906 4.765625 -0.296875 4.421875 -0.140625 C 4.078125 0.00390625 3.707031 0.078125 3.3125 0.078125 Z M 3.3125 -0.3125 C 3.65625 -0.3125 3.972656 -0.375 4.265625 -0.5 C 4.566406 -0.632812 4.828125 -0.8125 5.046875 -1.03125 C 5.265625 -1.257812 5.4375 -1.519531 5.5625 -1.8125 C 5.695312 -2.113281 5.765625 -2.441406 5.765625 -2.796875 C 5.765625 -3.148438 5.695312 -3.476562 5.5625 -3.78125 C 5.4375 -4.082031 5.265625 -4.34375 5.046875 -4.5625 C 4.828125 -4.78125 4.566406 -4.953125 4.265625 -5.078125 C 3.972656 -5.210938 3.65625 -5.28125 3.3125 -5.28125 C 2.976562 -5.28125 2.660156 -5.210938 2.359375 -5.078125 C 2.066406 -4.953125 1.804688 -4.78125 1.578125 -4.5625 C 1.359375 -4.34375 1.1875 -4.082031 1.0625 -3.78125 C 0.9375 -3.476562 0.875 -3.148438 0.875 -2.796875 C 0.875 -2.441406 0.9375 -2.113281 1.0625 -1.8125 C 1.1875 -1.519531 1.359375 -1.257812 1.578125 -1.03125 C 1.804688 -0.8125 2.066406 -0.632812 2.359375 -0.5 C 2.660156 -0.375 2.976562 -0.3125 3.3125 -0.3125 Z M 3.3125 -0.3125 "/></g></g></g><g fill="#bc9c22" fill-opacity="1"><g transform="translate(173.52603, 160.344859)"><g><path d="M 10.4375 0 L 54.328125 0 L 54.328125 -3.109375 L 13.65625 -3.109375 L 13.65625 -70.296875 L 10.4375 -70.296875 Z M 10.4375 0 "/></g></g></g><g fill="#bc9c22" fill-opacity="1"><g transform="translate(130.570257, 309.004596)"><g><path d="M 0.875 -5.59375 L 1.28125 -5.59375 L 1.28125 -0.40625 L 4.28125 -0.40625 L 4.28125 0 L 0.875 0 Z M 0.875 -5.59375 "/></g></g></g><g fill="#bc9c22" fill-opacity="1"><g transform="translate(138.210456, 309.004596)"><g><path d="M 3 0.078125 C 2.6875 0.078125 2.394531 0.0234375 2.125 -0.078125 C 1.863281 -0.191406 1.632812 -0.347656 1.4375 -0.546875 C 1.238281 -0.753906 1.082031 -0.992188 0.96875 -1.265625 C 0.851562 -1.546875 0.796875 -1.84375 0.796875 -2.15625 L 0.796875 -5.59375 L 1.203125 -5.59375 L 1.203125 -2.15625 C 1.203125 -1.882812 1.242188 -1.632812 1.328125 -1.40625 C 1.421875 -1.1875 1.546875 -0.992188 1.703125 -0.828125 C 1.867188 -0.671875 2.0625 -0.546875 2.28125 -0.453125 C 2.5 -0.359375 2.738281 -0.3125 3 -0.3125 C 3.257812 -0.3125 3.5 -0.359375 3.71875 -0.453125 C 3.9375 -0.546875 4.125 -0.671875 4.28125 -0.828125 C 4.445312 -0.992188 4.570312 -1.1875 4.65625 -1.40625 C 4.75 -1.632812 4.796875 -1.882812 4.796875 -2.15625 L 4.796875 -5.59375 L 5.203125 -5.59375 L 5.203125 -2.15625 C 5.203125 -1.84375 5.144531 -1.546875 5.03125 -1.265625 C 4.914062 -0.992188 4.757812 -0.753906 4.5625 -0.546875 C 4.363281 -0.347656 4.128906 -0.191406 3.859375 -0.078125 C 3.597656 0.0234375 3.3125 0.078125 3 0.078125 Z M 3 0.078125 "/></g></g></g><g fill="#bc9c22" fill-opacity="1"><g transform="translate(147.410698, 309.004596)"><g><path d="M 2.203125 -2.921875 L 0.28125 -5.59375 L 0.765625 -5.59375 L 2.4375 -3.234375 L 4.125 -5.59375 L 4.59375 -5.59375 L 2.6875 -2.921875 L 4.765625 0 L 4.28125 0 L 2.4375 -2.59375 L 0.59375 0 L 0.125 0 Z M 2.203125 -2.921875 "/></g></g></g><g fill="#bc9c22" fill-opacity="1"><g transform="translate(155.49091, 309.004596)"><g><path d="M 3 0.078125 C 2.6875 0.078125 2.394531 0.0234375 2.125 -0.078125 C 1.863281 -0.191406 1.632812 -0.347656 1.4375 -0.546875 C 1.238281 -0.753906 1.082031 -0.992188 0.96875 -1.265625 C 0.851562 -1.546875 0.796875 -1.84375 0.796875 -2.15625 L 0.796875 -5.59375 L 1.203125 -5.59375 L 1.203125 -2.15625 C 1.203125 -1.882812 1.242188 -1.632812 1.328125 -1.40625 C 1.421875 -1.1875 1.546875 -0.992188 1.703125 -0.828125 C 1.867188 -0.671875 2.0625 -0.546875 2.28125 -0.453125 C 2.5 -0.359375 2.738281 -0.3125 3 -0.3125 C 3.257812 -0.3125 3.5 -0.359375 3.71875 -0.453125 C 3.9375 -0.546875 4.125 -0.671875 4.28125 -0.828125 C 4.445312 -0.992188 4.570312 -1.1875 4.65625 -1.40625 C 4.75 -1.632812 4.796875 -1.882812 4.796875 -2.15625 L 4.796875 -5.59375 L 5.203125 -5.59375 L 5.203125 -2.15625 C 5.203125 -1.84375 5.144531 -1.546875 5.03125 -1.265625 C 4.914062 -0.992188 4.757812 -0.753906 4.5625 -0.546875 C 4.363281 -0.347656 4.128906 -0.191406 3.859375 -0.078125 C 3.597656 0.0234375 3.3125 0.078125 3 0.078125 Z M 3 0.078125 "/></g></g></g><g fill="#bc9c22" fill-opacity="1"><g transform="translate(164.691151, 309.004596)"><g><path d="M 0.875 -5.59375 L 3 -5.59375 C 3.25 -5.59375 3.476562 -5.550781 3.6875 -5.46875 C 3.90625 -5.382812 4.085938 -5.269531 4.234375 -5.125 C 4.390625 -4.976562 4.507812 -4.800781 4.59375 -4.59375 C 4.675781 -4.394531 4.71875 -4.179688 4.71875 -3.953125 C 4.71875 -3.796875 4.695312 -3.648438 4.65625 -3.515625 C 4.625 -3.390625 4.578125 -3.273438 4.515625 -3.171875 C 4.460938 -3.066406 4.398438 -2.972656 4.328125 -2.890625 C 4.253906 -2.816406 4.175781 -2.753906 4.09375 -2.703125 C 3.914062 -2.554688 3.710938 -2.457031 3.484375 -2.40625 L 4.84375 0 L 4.40625 0 L 3.078125 -2.3125 L 1.28125 -2.3125 L 1.28125 0 L 0.875 0 Z M 3 -2.71875 C 3.195312 -2.71875 3.375 -2.75 3.53125 -2.8125 C 3.695312 -2.875 3.835938 -2.957031 3.953125 -3.0625 C 4.078125 -3.175781 4.164062 -3.304688 4.21875 -3.453125 C 4.28125 -3.609375 4.3125 -3.773438 4.3125 -3.953125 C 4.3125 -4.140625 4.28125 -4.304688 4.21875 -4.453125 C 4.164062 -4.609375 4.078125 -4.738281 3.953125 -4.84375 C 3.835938 -4.957031 3.695312 -5.046875 3.53125 -5.109375 C 3.375 -5.171875 3.195312 -5.203125 3 -5.203125 L 1.28125 -5.203125 L 1.28125 -2.71875 Z M 3 -2.71875 "/></g></g></g><g fill="#bc9c22" fill-opacity="1"><g transform="translate(173.171374, 309.004596)"><g><path d="M 2.203125 -1.953125 L 0.125 -5.59375 L 0.59375 -5.59375 L 2.40625 -2.40625 L 4.203125 -5.59375 L 4.6875 -5.59375 L 2.59375 -1.953125 L 2.59375 0 L 2.203125 0 Z M 2.203125 -1.953125 "/></g></g></g><g fill="#bc9c22" fill-opacity="1"><g transform="translate(181.171589, 309.004596)"><g/></g></g><g fill="#bc9c22" fill-opacity="1"><g transform="translate(185.971712, 309.004596)"><g><path d="M 0.203125 -5.59375 L 0.640625 -5.59375 L 2.203125 -0.640625 L 3.796875 -5.59375 L 4.203125 -5.59375 L 5.796875 -0.640625 L 7.359375 -5.59375 L 7.796875 -5.59375 L 6 0 L 5.59375 0 L 4 -4.953125 L 2.40625 0 L 2 0 Z M 0.203125 -5.59375 "/></g></g></g><g fill="#bc9c22" fill-opacity="1"><g transform="translate(197.17202, 309.004596)"><g><path d="M 2.484375 -5.59375 L 2.875 -5.59375 L 5.203125 0 L 4.765625 0 L 4.078125 -1.640625 L 1.28125 -1.640625 L 0.59375 0 L 0.15625 0 Z M 3.921875 -2.046875 L 2.6875 -5.046875 L 1.4375 -2.046875 Z M 3.921875 -2.046875 "/></g></g></g><g fill="#bc9c22" fill-opacity="1"><g transform="translate(205.732245, 309.004596)"><g><path d="M 2 -5.203125 L 0.15625 -5.203125 L 0.15625 -5.59375 L 4.234375 -5.59375 L 4.234375 -5.203125 L 2.40625 -5.203125 L 2.40625 0 L 2 0 Z M 2 -5.203125 "/></g></g></g><g fill="#bc9c22" fill-opacity="1"><g transform="translate(213.332447, 309.004596)"><g><path d="M 3.3125 0.078125 C 2.925781 0.078125 2.5625 0.00390625 2.21875 -0.140625 C 1.875 -0.296875 1.570312 -0.503906 1.3125 -0.765625 C 1.050781 -1.023438 0.847656 -1.328125 0.703125 -1.671875 C 0.554688 -2.023438 0.484375 -2.398438 0.484375 -2.796875 C 0.484375 -3.203125 0.554688 -3.578125 0.703125 -3.921875 C 0.847656 -4.273438 1.050781 -4.582031 1.3125 -4.84375 C 1.570312 -5.101562 1.875 -5.304688 2.21875 -5.453125 C 2.5625 -5.609375 2.925781 -5.6875 3.3125 -5.6875 C 3.695312 -5.6875 4.03125 -5.617188 4.3125 -5.484375 C 4.601562 -5.359375 4.84375 -5.222656 5.03125 -5.078125 C 5.25 -4.898438 5.4375 -4.703125 5.59375 -4.484375 L 5.3125 -4.234375 C 5.175781 -4.429688 5.015625 -4.609375 4.828125 -4.765625 C 4.660156 -4.890625 4.453125 -5.003906 4.203125 -5.109375 C 3.953125 -5.222656 3.65625 -5.28125 3.3125 -5.28125 C 2.976562 -5.28125 2.660156 -5.210938 2.359375 -5.078125 C 2.066406 -4.953125 1.804688 -4.78125 1.578125 -4.5625 C 1.359375 -4.34375 1.1875 -4.082031 1.0625 -3.78125 C 0.9375 -3.476562 0.875 -3.148438 0.875 -2.796875 C 0.875 -2.441406 0.9375 -2.113281 1.0625 -1.8125 C 1.1875 -1.519531 1.359375 -1.257812 1.578125 -1.03125 C 1.804688 -0.8125 2.066406 -0.632812 2.359375 -0.5 C 2.660156 -0.375 2.976562 -0.3125 3.3125 -0.3125 C 3.65625 -0.3125 3.953125 -0.363281 4.203125 -0.46875 C 4.460938 -0.582031 4.675781 -0.707031 4.84375 -0.84375 C 5.039062 -0.988281 5.210938 -1.160156 5.359375 -1.359375 L 5.640625 -1.125 C 5.472656 -0.894531 5.273438 -0.691406 5.046875 -0.515625 C 4.847656 -0.359375 4.601562 -0.21875 4.3125 -0.09375 C 4.03125 0.0195312 3.695312 0.078125 3.3125 0.078125 Z M 3.3125 0.078125 "/></g></g></g><g fill="#bc9c22" fill-opacity="1"><g transform="translate(222.53269, 309.004596)"><g><path d="M 0.875 -5.59375 L 1.28125 -5.59375 L 1.28125 -3.046875 L 4.6875 -3.046875 L 4.6875 -5.59375 L 5.078125 -5.59375 L 5.078125 0 L 4.6875 0 L 4.6875 -2.640625 L 1.28125 -2.640625 L 1.28125 0 L 0.875 0 Z M 0.875 -5.59375 "/></g></g></g><g fill="#bc9c22" fill-opacity="1"><g transform="translate(231.692934, 309.004596)"><g><path d="M 0.875 -5.59375 L 4.640625 -5.59375 L 4.640625 -5.203125 L 1.28125 -5.203125 L 1.28125 -3.125 L 4 -3.125 L 4 -2.71875 L 1.28125 -2.71875 L 1.28125 -0.40625 L 4.71875 -0.40625 L 4.71875 0 L 0.875 0 Z M 0.875 -5.59375 "/></g></g></g><g fill="#bc9c22" fill-opacity="1"><g transform="translate(239.933155, 309.004596)"><g><path d="M 2.203125 0.078125 C 1.890625 0.078125 1.617188 0.0351562 1.390625 -0.046875 C 1.160156 -0.128906 0.96875 -0.226562 0.8125 -0.34375 C 0.632812 -0.457031 0.484375 -0.597656 0.359375 -0.765625 L 0.640625 -1.046875 C 0.742188 -0.898438 0.867188 -0.78125 1.015625 -0.6875 C 1.140625 -0.59375 1.300781 -0.503906 1.5 -0.421875 C 1.695312 -0.347656 1.929688 -0.3125 2.203125 -0.3125 C 2.679688 -0.3125 3.039062 -0.421875 3.28125 -0.640625 C 3.519531 -0.859375 3.640625 -1.140625 3.640625 -1.484375 C 3.640625 -1.671875 3.59375 -1.828125 3.5 -1.953125 C 3.414062 -2.078125 3.300781 -2.179688 3.15625 -2.265625 C 3.007812 -2.359375 2.84375 -2.4375 2.65625 -2.5 C 2.46875 -2.5625 2.273438 -2.625 2.078125 -2.6875 C 1.878906 -2.75 1.6875 -2.816406 1.5 -2.890625 C 1.3125 -2.972656 1.144531 -3.070312 1 -3.1875 C 0.863281 -3.300781 0.75 -3.4375 0.65625 -3.59375 C 0.5625 -3.757812 0.515625 -3.960938 0.515625 -4.203125 C 0.515625 -4.398438 0.554688 -4.585938 0.640625 -4.765625 C 0.722656 -4.953125 0.835938 -5.109375 0.984375 -5.234375 C 1.140625 -5.367188 1.328125 -5.476562 1.546875 -5.5625 C 1.765625 -5.644531 2.007812 -5.6875 2.28125 -5.6875 C 2.539062 -5.6875 2.769531 -5.648438 2.96875 -5.578125 C 3.164062 -5.503906 3.332031 -5.421875 3.46875 -5.328125 C 3.632812 -5.234375 3.769531 -5.125 3.875 -5 L 3.59375 -4.71875 C 3.507812 -4.820312 3.398438 -4.914062 3.265625 -5 C 3.160156 -5.070312 3.023438 -5.132812 2.859375 -5.1875 C 2.691406 -5.25 2.5 -5.28125 2.28125 -5.28125 C 2.0625 -5.28125 1.863281 -5.25 1.6875 -5.1875 C 1.519531 -5.132812 1.378906 -5.054688 1.265625 -4.953125 C 1.148438 -4.859375 1.0625 -4.742188 1 -4.609375 C 0.945312 -4.484375 0.921875 -4.347656 0.921875 -4.203125 C 0.921875 -4.003906 0.960938 -3.84375 1.046875 -3.71875 C 1.140625 -3.59375 1.257812 -3.484375 1.40625 -3.390625 C 1.550781 -3.304688 1.71875 -3.234375 1.90625 -3.171875 C 2.09375 -3.109375 2.285156 -3.046875 2.484375 -2.984375 C 2.679688 -2.921875 2.875 -2.851562 3.0625 -2.78125 C 3.25 -2.707031 3.410156 -2.613281 3.546875 -2.5 C 3.691406 -2.382812 3.8125 -2.242188 3.90625 -2.078125 C 4 -1.921875 4.046875 -1.722656 4.046875 -1.484375 C 4.046875 -1.265625 4.003906 -1.054688 3.921875 -0.859375 C 3.835938 -0.671875 3.710938 -0.503906 3.546875 -0.359375 C 3.390625 -0.222656 3.195312 -0.113281 2.96875 -0.03125 C 2.738281 0.0390625 2.484375 0.078125 2.203125 0.078125 Z M 2.203125 0.078125 "/></g></g></g></svg>