<svg xmlns="http://www.w3.org/2000/svg" xmlns:xlink="http://www.w3.org/1999/xlink" width="500" zoomAndPan="magnify" viewBox="0 0 375 374.999991" height="500" preserveAspectRatio="xMidYMid meet" version="1.0"><defs><g/></defs><rect x="-37.5" width="450" fill="#ffffff" y="-37.499999" height="449.999989" fill-opacity="1"/><rect x="-37.5" width="450" fill="#000000" y="-37.499999" height="449.999989" fill-opacity="1"/><g fill="#bc9c22" fill-opacity="1"><g transform="translate(115.62949, 174.30428)"><g><path d="M 3.09375 -0.390625 L 3.09375 -16.296875 L 1.25 -16.296875 L 1.25 0.03125 L 9.59375 0.03125 L 9.59375 -0.390625 Z M 3.09375 -0.390625 "/></g></g></g><g fill="#bc9c22" fill-opacity="1"><g transform="translate(128.834341, 174.30428)"><g><path d="M 13.125 -16.296875 L 13.125 -6.234375 C 13.125 -1.28125 10.609375 -0.1875 7.640625 -0.1875 C 3.25 -0.1875 3.015625 -4.15625 3.015625 -6 L 3.015625 -16.296875 L 1.171875 -16.296875 L 1.171875 -6 C 1.171875 -0.703125 4.1875 0.5 7.25 0.5 C 11.40625 0.5 13.578125 -1.71875 13.578125 -6 L 13.578125 -16.296875 Z M 13.125 -16.296875 "/></g></g></g><g fill="#bc9c22" fill-opacity="1"><g transform="translate(146.275922, 174.30428)"><g><path d="M 14.734375 -1.453125 C 14.734375 -1.453125 13 0.046875 9.984375 0.046875 C 7.078125 0.046875 2.9375 -1.25 2.9375 -8.09375 C 2.9375 -14.8125 7.46875 -16.203125 9.984375 -16.203125 C 13.046875 -16.203125 14.734375 -14.96875 14.734375 -14.96875 L 14.734375 -15.546875 C 14.734375 -15.546875 12.953125 -16.609375 9.984375 -16.609375 C 5.296875 -16.609375 1.046875 -14.125 1.046875 -8.09375 C 1.046875 -1.140625 6.46875 0.5 9.75 0.5 C 13 0.5 14.734375 -0.890625 14.734375 -0.890625 Z M 14.734375 -1.453125 "/></g></g></g><g fill="#bc9c22" fill-opacity="1"><g transform="translate(164.731198, 174.30428)"><g><path d="M 13.59375 0.03125 L 15.59375 0.03125 L 8.453125 -16.609375 L 8.3125 -16.609375 L 0.90625 0.03125 L 1.484375 0.03125 L 4.421875 -6.53125 L 10.765625 -6.53125 Z M 4.609375 -6.96875 L 7.640625 -13.8125 L 10.578125 -6.96875 Z M 4.609375 -6.96875 "/></g></g></g><g fill="#bc9c22" fill-opacity="1"><g transform="translate(183.862268, 174.30428)"><g/></g></g><g fill="#bc9c22" fill-opacity="1"><g transform="translate(192.960349, 174.30428)"><g><path d="M 15.265625 0.03125 C 14.484375 -0.984375 13.359375 -2.390625 12.21875 -3.875 C 13.625 -5.984375 14.359375 -8.03125 14.359375 -8.03125 L 13.8125 -8.03125 C 13.8125 -8.03125 13.125 -6.1875 11.90625 -4.296875 C 10.34375 -6.3125 8.734375 -8.421875 7.640625 -9.796875 C 8.375 -10.21875 9.09375 -10.6875 9.703125 -11.125 C 10.71875 -11.90625 11.34375 -12.65625 11.34375 -13.96875 C 11.34375 -15.578125 10.140625 -16.796875 7.828125 -16.796875 C 5.203125 -16.796875 3.828125 -15.28125 3.828125 -13.390625 C 3.828125 -12.375 4.234375 -11.234375 5.046875 -10.140625 C 5.25 -9.90625 5.453125 -9.625 5.71875 -9.28125 C 3.40625 -7.984375 0.9375 -6.390625 0.9375 -3.59375 C 0.9375 -1.4375 2.578125 0.515625 5.828125 0.515625 C 7.953125 0.515625 9.71875 -0.78125 11.078125 -2.34375 C 11.796875 -1.40625 12.453125 -0.578125 12.890625 0.03125 Z M 7.828125 -16.359375 C 9.3125 -16.359375 10.21875 -15.109375 10.21875 -13.734375 C 10.21875 -13.1875 10.0625 -12.578125 9.75 -12.03125 C 9.328125 -11.390625 8.390625 -10.796875 7.359375 -10.1875 C 7.015625 -10.609375 6.765625 -10.953125 6.609375 -11.1875 C 5.796875 -12.21875 5.453125 -13.1875 5.453125 -13.984375 C 5.453125 -15.4375 6.546875 -16.359375 7.828125 -16.359375 Z M 8.234375 -0.671875 C 7.59375 -0.359375 6.9375 -0.234375 6.3125 -0.234375 C 4.765625 -0.234375 3.4375 -1.140625 2.890625 -2.65625 C 2.671875 -3.28125 2.578125 -3.875 2.578125 -4.453125 C 2.578125 -5.828125 3.21875 -7.046875 4.609375 -8.03125 C 4.90625 -8.296875 5.5625 -8.65625 6 -8.890625 C 7.3125 -7.203125 9.203125 -4.78125 10.765625 -2.734375 C 10.03125 -1.875 9.203125 -1.125 8.234375 -0.671875 Z M 8.234375 -0.671875 "/></g></g></g><g fill="#bc9c22" fill-opacity="1"><g transform="translate(211.675547, 174.30428)"><g/></g></g><g fill="#bc9c22" fill-opacity="1"><g transform="translate(220.773633, 174.30428)"><g><path d="M 14.734375 -1.453125 C 14.734375 -1.453125 13 0.046875 9.984375 0.046875 C 7.078125 0.046875 2.9375 -1.25 2.9375 -8.09375 C 2.9375 -14.8125 7.46875 -16.203125 9.984375 -16.203125 C 13.046875 -16.203125 14.734375 -14.96875 14.734375 -14.96875 L 14.734375 -15.546875 C 14.734375 -15.546875 12.953125 -16.609375 9.984375 -16.609375 C 5.296875 -16.609375 1.046875 -14.125 1.046875 -8.09375 C 1.046875 -1.140625 6.46875 0.5 9.75 0.5 C 13 0.5 14.734375 -0.890625 14.734375 -0.890625 Z M 14.734375 -1.453125 "/></g></g></g><g fill="#bc9c22" fill-opacity="1"><g transform="translate(239.228912, 174.30428)"><g><path d="M 9.984375 -16.609375 C 5.296875 -16.609375 1.046875 -14.125 1.046875 -8.09375 C 1.046875 -1.140625 6.703125 0.5 9.984375 0.5 C 13.234375 0.5 18.921875 -1.140625 18.921875 -8.09375 C 18.921875 -14.125 14.640625 -16.609375 9.984375 -16.609375 Z M 9.984375 0.046875 C 7.046875 0.046875 2.9375 -1.25 2.9375 -8.09375 C 2.9375 -14.8125 7.46875 -16.203125 9.984375 -16.203125 C 12.5 -16.203125 17.03125 -14.8125 17.03125 -8.09375 C 17.03125 -1.25 12.890625 0.046875 9.984375 0.046875 Z M 9.984375 0.046875 "/></g></g></g><g fill="#bc9c22" fill-opacity="1"><g transform="translate(130.132747, 188.737738)"><g><path d="M 0.875 -5.59375 L 3 -5.59375 C 3.25 -5.59375 3.476562 -5.550781 3.6875 -5.46875 C 3.90625 -5.382812 4.085938 -5.269531 4.234375 -5.125 C 4.390625 -4.976562 4.507812 -4.800781 4.59375 -4.59375 C 4.675781 -4.394531 4.71875 -4.179688 4.71875 -3.953125 C 4.71875 -3.796875 4.695312 -3.648438 4.65625 -3.515625 C 4.625 -3.390625 4.578125 -3.273438 4.515625 -3.171875 C 4.460938 -3.066406 4.398438 -2.972656 4.328125 -2.890625 C 4.253906 -2.816406 4.175781 -2.753906 4.09375 -2.703125 C 3.914062 -2.554688 3.710938 -2.457031 3.484375 -2.40625 L 4.84375 0 L 4.40625 0 L 3.078125 -2.3125 L 1.28125 -2.3125 L 1.28125 0 L 0.875 0 Z M 3 -2.71875 C 3.195312 -2.71875 3.375 -2.75 3.53125 -2.8125 C 3.695312 -2.875 3.835938 -2.957031 3.953125 -3.0625 C 4.078125 -3.175781 4.164062 -3.304688 4.21875 -3.453125 C 4.28125 -3.609375 4.3125 -3.773438 4.3125 -3.953125 C 4.3125 -4.140625 4.28125 -4.304688 4.21875 -4.453125 C 4.164062 -4.609375 4.078125 -4.738281 3.953125 -4.84375 C 3.835938 -4.957031 3.695312 -5.046875 3.53125 -5.109375 C 3.375 -5.171875 3.195312 -5.203125 3 -5.203125 L 1.28125 -5.203125 L 1.28125 -2.71875 Z M 3 -2.71875 "/></g></g></g><g fill="#bc9c22" fill-opacity="1"><g transform="translate(138.612972, 188.737738)"><g><path d="M 0.875 -5.59375 L 4.640625 -5.59375 L 4.640625 -5.203125 L 1.28125 -5.203125 L 1.28125 -3.125 L 4 -3.125 L 4 -2.71875 L 1.28125 -2.71875 L 1.28125 -0.40625 L 4.71875 -0.40625 L 4.71875 0 L 0.875 0 Z M 0.875 -5.59375 "/></g></g></g><g fill="#bc9c22" fill-opacity="1"><g transform="translate(146.853191, 188.737738)"><g><path d="M 0.875 -5.59375 L 1.28125 -5.59375 L 1.28125 -0.40625 L 4.28125 -0.40625 L 4.28125 0 L 0.875 0 Z M 0.875 -5.59375 "/></g></g></g><g fill="#bc9c22" fill-opacity="1"><g transform="translate(154.493391, 188.737738)"><g><path d="M 3.3125 0.078125 C 2.925781 0.078125 2.5625 0.00390625 2.21875 -0.140625 C 1.875 -0.296875 1.570312 -0.503906 1.3125 -0.765625 C 1.050781 -1.023438 0.847656 -1.328125 0.703125 -1.671875 C 0.554688 -2.023438 0.484375 -2.398438 0.484375 -2.796875 C 0.484375 -3.203125 0.554688 -3.578125 0.703125 -3.921875 C 0.847656 -4.273438 1.050781 -4.582031 1.3125 -4.84375 C 1.570312 -5.101562 1.875 -5.304688 2.21875 -5.453125 C 2.5625 -5.609375 2.925781 -5.6875 3.3125 -5.6875 C 3.707031 -5.6875 4.078125 -5.609375 4.421875 -5.453125 C 4.765625 -5.304688 5.066406 -5.101562 5.328125 -4.84375 C 5.585938 -4.582031 5.789062 -4.273438 5.9375 -3.921875 C 6.082031 -3.578125 6.15625 -3.203125 6.15625 -2.796875 C 6.15625 -2.398438 6.082031 -2.023438 5.9375 -1.671875 C 5.789062 -1.328125 5.585938 -1.023438 5.328125 -0.765625 C 5.066406 -0.503906 4.765625 -0.296875 4.421875 -0.140625 C 4.078125 0.00390625 3.707031 0.078125 3.3125 0.078125 Z M 3.3125 -0.3125 C 3.65625 -0.3125 3.972656 -0.375 4.265625 -0.5 C 4.566406 -0.632812 4.828125 -0.8125 5.046875 -1.03125 C 5.265625 -1.257812 5.4375 -1.519531 5.5625 -1.8125 C 5.695312 -2.113281 5.765625 -2.441406 5.765625 -2.796875 C 5.765625 -3.148438 5.695312 -3.476562 5.5625 -3.78125 C 5.4375 -4.082031 5.265625 -4.34375 5.046875 -4.5625 C 4.828125 -4.78125 4.566406 -4.953125 4.265625 -5.078125 C 3.972656 -5.210938 3.65625 -5.28125 3.3125 -5.28125 C 2.976562 -5.28125 2.660156 -5.210938 2.359375 -5.078125 C 2.066406 -4.953125 1.804688 -4.78125 1.578125 -4.5625 C 1.359375 -4.34375 1.1875 -4.082031 1.0625 -3.78125 C 0.9375 -3.476562 0.875 -3.148438 0.875 -2.796875 C 0.875 -2.441406 0.9375 -2.113281 1.0625 -1.8125 C 1.1875 -1.519531 1.359375 -1.257812 1.578125 -1.03125 C 1.804688 -0.8125 2.066406 -0.632812 2.359375 -0.5 C 2.660156 -0.375 2.976562 -0.3125 3.3125 -0.3125 Z M 3.3125 -0.3125 "/></g></g></g><g fill="#bc9c22" fill-opacity="1"><g transform="translate(164.33365, 188.737738)"><g><path d="M 1.40625 0.078125 C 1.1875 0.078125 0.992188 0.046875 0.828125 -0.015625 C 0.671875 -0.078125 0.535156 -0.144531 0.421875 -0.21875 C 0.285156 -0.3125 0.171875 -0.410156 0.078125 -0.515625 L 0.359375 -0.796875 C 0.429688 -0.703125 0.519531 -0.625 0.625 -0.5625 C 0.71875 -0.5 0.828125 -0.441406 0.953125 -0.390625 C 1.078125 -0.335938 1.226562 -0.3125 1.40625 -0.3125 C 1.59375 -0.3125 1.765625 -0.34375 1.921875 -0.40625 C 2.078125 -0.46875 2.210938 -0.554688 2.328125 -0.671875 C 2.441406 -0.796875 2.53125 -0.9375 2.59375 -1.09375 C 2.65625 -1.257812 2.6875 -1.441406 2.6875 -1.640625 L 2.6875 -5.59375 L 3.078125 -5.59375 L 3.078125 -1.640625 C 3.078125 -1.390625 3.035156 -1.15625 2.953125 -0.9375 C 2.867188 -0.726562 2.75 -0.546875 2.59375 -0.390625 C 2.445312 -0.242188 2.269531 -0.128906 2.0625 -0.046875 C 1.863281 0.0351562 1.644531 0.078125 1.40625 0.078125 Z M 1.40625 0.078125 "/></g></g></g><g fill="#bc9c22" fill-opacity="1"><g transform="translate(171.413829, 188.737738)"><g><path d="M 0.875 -5.59375 L 4.640625 -5.59375 L 4.640625 -5.203125 L 1.28125 -5.203125 L 1.28125 -3.125 L 4 -3.125 L 4 -2.71875 L 1.28125 -2.71875 L 1.28125 -0.40625 L 4.71875 -0.40625 L 4.71875 0 L 0.875 0 Z M 0.875 -5.59375 "/></g></g></g><g fill="#bc9c22" fill-opacity="1"><g transform="translate(179.65405, 188.737738)"><g><path d="M 2.203125 0.078125 C 1.890625 0.078125 1.617188 0.0351562 1.390625 -0.046875 C 1.160156 -0.128906 0.96875 -0.226562 0.8125 -0.34375 C 0.632812 -0.457031 0.484375 -0.597656 0.359375 -0.765625 L 0.640625 -1.046875 C 0.742188 -0.898438 0.867188 -0.78125 1.015625 -0.6875 C 1.140625 -0.59375 1.300781 -0.503906 1.5 -0.421875 C 1.695312 -0.347656 1.929688 -0.3125 2.203125 -0.3125 C 2.679688 -0.3125 3.039062 -0.421875 3.28125 -0.640625 C 3.519531 -0.859375 3.640625 -1.140625 3.640625 -1.484375 C 3.640625 -1.671875 3.59375 -1.828125 3.5 -1.953125 C 3.414062 -2.078125 3.300781 -2.179688 3.15625 -2.265625 C 3.007812 -2.359375 2.84375 -2.4375 2.65625 -2.5 C 2.46875 -2.5625 2.273438 -2.625 2.078125 -2.6875 C 1.878906 -2.75 1.6875 -2.816406 1.5 -2.890625 C 1.3125 -2.972656 1.144531 -3.070312 1 -3.1875 C 0.863281 -3.300781 0.75 -3.4375 0.65625 -3.59375 C 0.5625 -3.757812 0.515625 -3.960938 0.515625 -4.203125 C 0.515625 -4.398438 0.554688 -4.585938 0.640625 -4.765625 C 0.722656 -4.953125 0.835938 -5.109375 0.984375 -5.234375 C 1.140625 -5.367188 1.328125 -5.476562 1.546875 -5.5625 C 1.765625 -5.644531 2.007812 -5.6875 2.28125 -5.6875 C 2.539062 -5.6875 2.769531 -5.648438 2.96875 -5.578125 C 3.164062 -5.503906 3.332031 -5.421875 3.46875 -5.328125 C 3.632812 -5.234375 3.769531 -5.125 3.875 -5 L 3.59375 -4.71875 C 3.507812 -4.820312 3.398438 -4.914062 3.265625 -5 C 3.160156 -5.070312 3.023438 -5.132812 2.859375 -5.1875 C 2.691406 -5.25 2.5 -5.28125 2.28125 -5.28125 C 2.0625 -5.28125 1.863281 -5.25 1.6875 -5.1875 C 1.519531 -5.132812 1.378906 -5.054688 1.265625 -4.953125 C 1.148438 -4.859375 1.0625 -4.742188 1 -4.609375 C 0.945312 -4.484375 0.921875 -4.347656 0.921875 -4.203125 C 0.921875 -4.003906 0.960938 -3.84375 1.046875 -3.71875 C 1.140625 -3.59375 1.257812 -3.484375 1.40625 -3.390625 C 1.550781 -3.304688 1.71875 -3.234375 1.90625 -3.171875 C 2.09375 -3.109375 2.285156 -3.046875 2.484375 -2.984375 C 2.679688 -2.921875 2.875 -2.851562 3.0625 -2.78125 C 3.25 -2.707031 3.410156 -2.613281 3.546875 -2.5 C 3.691406 -2.382812 3.8125 -2.242188 3.90625 -2.078125 C 4 -1.921875 4.046875 -1.722656 4.046875 -1.484375 C 4.046875 -1.265625 4.003906 -1.054688 3.921875 -0.859375 C 3.835938 -0.671875 3.710938 -0.503906 3.546875 -0.359375 C 3.390625 -0.222656 3.195312 -0.113281 2.96875 -0.03125 C 2.738281 0.0390625 2.484375 0.078125 2.203125 0.078125 Z M 2.203125 0.078125 "/></g></g></g><g fill="#bc9c22" fill-opacity="1"><g transform="translate(187.33425, 188.737738)"><g/></g></g><g fill="#bc9c22" fill-opacity="1"><g transform="translate(192.134373, 188.737738)"><g><path d="M 0.875 -5.59375 L 2.515625 -5.59375 C 2.941406 -5.59375 3.332031 -5.519531 3.6875 -5.375 C 4.039062 -5.226562 4.347656 -5.03125 4.609375 -4.78125 C 4.867188 -4.53125 5.070312 -4.234375 5.21875 -3.890625 C 5.363281 -3.554688 5.4375 -3.191406 5.4375 -2.796875 C 5.4375 -2.410156 5.363281 -2.046875 5.21875 -1.703125 C 5.070312 -1.359375 4.867188 -1.0625 4.609375 -0.8125 C 4.347656 -0.5625 4.039062 -0.363281 3.6875 -0.21875 C 3.332031 -0.0703125 2.941406 0 2.515625 0 L 0.875 0 Z M 2.515625 -0.40625 C 2.890625 -0.40625 3.226562 -0.460938 3.53125 -0.578125 C 3.84375 -0.703125 4.109375 -0.875 4.328125 -1.09375 C 4.554688 -1.3125 4.734375 -1.5625 4.859375 -1.84375 C 4.984375 -2.132812 5.046875 -2.453125 5.046875 -2.796875 C 5.046875 -3.140625 4.984375 -3.457031 4.859375 -3.75 C 4.734375 -4.039062 4.554688 -4.289062 4.328125 -4.5 C 4.109375 -4.71875 3.84375 -4.890625 3.53125 -5.015625 C 3.226562 -5.140625 2.890625 -5.203125 2.515625 -5.203125 L 1.28125 -5.203125 L 1.28125 -0.40625 Z M 2.515625 -0.40625 "/></g></g></g><g fill="#bc9c22" fill-opacity="1"><g transform="translate(201.254618, 188.737738)"><g><path d="M 0.875 -5.59375 L 4.640625 -5.59375 L 4.640625 -5.203125 L 1.28125 -5.203125 L 1.28125 -3.125 L 4 -3.125 L 4 -2.71875 L 1.28125 -2.71875 L 1.28125 -0.40625 L 4.71875 -0.40625 L 4.71875 0 L 0.875 0 Z M 0.875 -5.59375 "/></g></g></g><g fill="#bc9c22" fill-opacity="1"><g transform="translate(209.494839, 188.737738)"><g/></g></g><g fill="#bc9c22" fill-opacity="1"><g transform="translate(214.294962, 188.737738)"><g><path d="M 0.875 -5.59375 L 1.28125 -5.59375 L 1.28125 -0.40625 L 4.28125 -0.40625 L 4.28125 0 L 0.875 0 Z M 0.875 -5.59375 "/></g></g></g><g fill="#bc9c22" fill-opacity="1"><g transform="translate(221.935163, 188.737738)"><g><path d="M 3 0.078125 C 2.6875 0.078125 2.394531 0.0234375 2.125 -0.078125 C 1.863281 -0.191406 1.632812 -0.347656 1.4375 -0.546875 C 1.238281 -0.753906 1.082031 -0.992188 0.96875 -1.265625 C 0.851562 -1.546875 0.796875 -1.84375 0.796875 -2.15625 L 0.796875 -5.59375 L 1.203125 -5.59375 L 1.203125 -2.15625 C 1.203125 -1.882812 1.242188 -1.632812 1.328125 -1.40625 C 1.421875 -1.1875 1.546875 -0.992188 1.703125 -0.828125 C 1.867188 -0.671875 2.0625 -0.546875 2.28125 -0.453125 C 2.5 -0.359375 2.738281 -0.3125 3 -0.3125 C 3.257812 -0.3125 3.5 -0.359375 3.71875 -0.453125 C 3.9375 -0.546875 4.125 -0.671875 4.28125 -0.828125 C 4.445312 -0.992188 4.570312 -1.1875 4.65625 -1.40625 C 4.75 -1.632812 4.796875 -1.882812 4.796875 -2.15625 L 4.796875 -5.59375 L 5.203125 -5.59375 L 5.203125 -2.15625 C 5.203125 -1.84375 5.144531 -1.546875 5.03125 -1.265625 C 4.914062 -0.992188 4.757812 -0.753906 4.5625 -0.546875 C 4.363281 -0.347656 4.128906 -0.191406 3.859375 -0.078125 C 3.597656 0.0234375 3.3125 0.078125 3 0.078125 Z M 3 0.078125 "/></g></g></g><g fill="#bc9c22" fill-opacity="1"><g transform="translate(231.135406, 188.737738)"><g><path d="M 1.40625 0.078125 C 1.1875 0.078125 0.992188 0.046875 0.828125 -0.015625 C 0.671875 -0.078125 0.535156 -0.144531 0.421875 -0.21875 C 0.285156 -0.3125 0.171875 -0.410156 0.078125 -0.515625 L 0.359375 -0.796875 C 0.429688 -0.703125 0.519531 -0.625 0.625 -0.5625 C 0.71875 -0.5 0.828125 -0.441406 0.953125 -0.390625 C 1.078125 -0.335938 1.226562 -0.3125 1.40625 -0.3125 C 1.59375 -0.3125 1.765625 -0.34375 1.921875 -0.40625 C 2.078125 -0.46875 2.210938 -0.554688 2.328125 -0.671875 C 2.441406 -0.796875 2.53125 -0.9375 2.59375 -1.09375 C 2.65625 -1.257812 2.6875 -1.441406 2.6875 -1.640625 L 2.6875 -5.59375 L 3.078125 -5.59375 L 3.078125 -1.640625 C 3.078125 -1.390625 3.035156 -1.15625 2.953125 -0.9375 C 2.867188 -0.726562 2.75 -0.546875 2.59375 -0.390625 C 2.445312 -0.242188 2.269531 -0.128906 2.0625 -0.046875 C 1.863281 0.0351562 1.644531 0.078125 1.40625 0.078125 Z M 1.40625 0.078125 "/></g></g></g><g fill="#bc9c22" fill-opacity="1"><g transform="translate(238.215588, 188.737738)"><g><path d="M 3.3125 0.078125 C 2.925781 0.078125 2.5625 0.00390625 2.21875 -0.140625 C 1.875 -0.296875 1.570312 -0.503906 1.3125 -0.765625 C 1.050781 -1.023438 0.847656 -1.328125 0.703125 -1.671875 C 0.554688 -2.023438 0.484375 -2.398438 0.484375 -2.796875 C 0.484375 -3.203125 0.554688 -3.578125 0.703125 -3.921875 C 0.847656 -4.273438 1.050781 -4.582031 1.3125 -4.84375 C 1.570312 -5.101562 1.875 -5.304688 2.21875 -5.453125 C 2.5625 -5.609375 2.925781 -5.6875 3.3125 -5.6875 C 3.707031 -5.6875 4.078125 -5.609375 4.421875 -5.453125 C 4.765625 -5.304688 5.066406 -5.101562 5.328125 -4.84375 C 5.585938 -4.582031 5.789062 -4.273438 5.9375 -3.921875 C 6.082031 -3.578125 6.15625 -3.203125 6.15625 -2.796875 C 6.15625 -2.398438 6.082031 -2.023438 5.9375 -1.671875 C 5.789062 -1.328125 5.585938 -1.023438 5.328125 -0.765625 C 5.066406 -0.503906 4.765625 -0.296875 4.421875 -0.140625 C 4.078125 0.00390625 3.707031 0.078125 3.3125 0.078125 Z M 3.3125 -0.3125 C 3.65625 -0.3125 3.972656 -0.375 4.265625 -0.5 C 4.566406 -0.632812 4.828125 -0.8125 5.046875 -1.03125 C 5.265625 -1.257812 5.4375 -1.519531 5.5625 -1.8125 C 5.695312 -2.113281 5.765625 -2.441406 5.765625 -2.796875 C 5.765625 -3.148438 5.695312 -3.476562 5.5625 -3.78125 C 5.4375 -4.082031 5.265625 -4.34375 5.046875 -4.5625 C 4.828125 -4.78125 4.566406 -4.953125 4.265625 -5.078125 C 3.972656 -5.210938 3.65625 -5.28125 3.3125 -5.28125 C 2.976562 -5.28125 2.660156 -5.210938 2.359375 -5.078125 C 2.066406 -4.953125 1.804688 -4.78125 1.578125 -4.5625 C 1.359375 -4.34375 1.1875 -4.082031 1.0625 -3.78125 C 0.9375 -3.476562 0.875 -3.148438 0.875 -2.796875 C 0.875 -2.441406 0.9375 -2.113281 1.0625 -1.8125 C 1.1875 -1.519531 1.359375 -1.257812 1.578125 -1.03125 C 1.804688 -0.8125 2.066406 -0.632812 2.359375 -0.5 C 2.660156 -0.375 2.976562 -0.3125 3.3125 -0.3125 Z M 3.3125 -0.3125 "/></g></g></g><g fill="#bc9c22" fill-opacity="1"><g transform="translate(130.570257, 197.804609)"><g><path d="M 0.875 -5.59375 L 1.28125 -5.59375 L 1.28125 -0.40625 L 4.28125 -0.40625 L 4.28125 0 L 0.875 0 Z M 0.875 -5.59375 "/></g></g></g><g fill="#bc9c22" fill-opacity="1"><g transform="translate(138.210456, 197.804609)"><g><path d="M 3 0.078125 C 2.6875 0.078125 2.394531 0.0234375 2.125 -0.078125 C 1.863281 -0.191406 1.632812 -0.347656 1.4375 -0.546875 C 1.238281 -0.753906 1.082031 -0.992188 0.96875 -1.265625 C 0.851562 -1.546875 0.796875 -1.84375 0.796875 -2.15625 L 0.796875 -5.59375 L 1.203125 -5.59375 L 1.203125 -2.15625 C 1.203125 -1.882812 1.242188 -1.632812 1.328125 -1.40625 C 1.421875 -1.1875 1.546875 -0.992188 1.703125 -0.828125 C 1.867188 -0.671875 2.0625 -0.546875 2.28125 -0.453125 C 2.5 -0.359375 2.738281 -0.3125 3 -0.3125 C 3.257812 -0.3125 3.5 -0.359375 3.71875 -0.453125 C 3.9375 -0.546875 4.125 -0.671875 4.28125 -0.828125 C 4.445312 -0.992188 4.570312 -1.1875 4.65625 -1.40625 C 4.75 -1.632812 4.796875 -1.882812 4.796875 -2.15625 L 4.796875 -5.59375 L 5.203125 -5.59375 L 5.203125 -2.15625 C 5.203125 -1.84375 5.144531 -1.546875 5.03125 -1.265625 C 4.914062 -0.992188 4.757812 -0.753906 4.5625 -0.546875 C 4.363281 -0.347656 4.128906 -0.191406 3.859375 -0.078125 C 3.597656 0.0234375 3.3125 0.078125 3 0.078125 Z M 3 0.078125 "/></g></g></g><g fill="#bc9c22" fill-opacity="1"><g transform="translate(147.410698, 197.804609)"><g><path d="M 2.203125 -2.921875 L 0.28125 -5.59375 L 0.765625 -5.59375 L 2.4375 -3.234375 L 4.125 -5.59375 L 4.59375 -5.59375 L 2.6875 -2.921875 L 4.765625 0 L 4.28125 0 L 2.4375 -2.59375 L 0.59375 0 L 0.125 0 Z M 2.203125 -2.921875 "/></g></g></g><g fill="#bc9c22" fill-opacity="1"><g transform="translate(155.49091, 197.804609)"><g><path d="M 3 0.078125 C 2.6875 0.078125 2.394531 0.0234375 2.125 -0.078125 C 1.863281 -0.191406 1.632812 -0.347656 1.4375 -0.546875 C 1.238281 -0.753906 1.082031 -0.992188 0.96875 -1.265625 C 0.851562 -1.546875 0.796875 -1.84375 0.796875 -2.15625 L 0.796875 -5.59375 L 1.203125 -5.59375 L 1.203125 -2.15625 C 1.203125 -1.882812 1.242188 -1.632812 1.328125 -1.40625 C 1.421875 -1.1875 1.546875 -0.992188 1.703125 -0.828125 C 1.867188 -0.671875 2.0625 -0.546875 2.28125 -0.453125 C 2.5 -0.359375 2.738281 -0.3125 3 -0.3125 C 3.257812 -0.3125 3.5 -0.359375 3.71875 -0.453125 C 3.9375 -0.546875 4.125 -0.671875 4.28125 -0.828125 C 4.445312 -0.992188 4.570312 -1.1875 4.65625 -1.40625 C 4.75 -1.632812 4.796875 -1.882812 4.796875 -2.15625 L 4.796875 -5.59375 L 5.203125 -5.59375 L 5.203125 -2.15625 C 5.203125 -1.84375 5.144531 -1.546875 5.03125 -1.265625 C 4.914062 -0.992188 4.757812 -0.753906 4.5625 -0.546875 C 4.363281 -0.347656 4.128906 -0.191406 3.859375 -0.078125 C 3.597656 0.0234375 3.3125 0.078125 3 0.078125 Z M 3 0.078125 "/></g></g></g><g fill="#bc9c22" fill-opacity="1"><g transform="translate(164.691151, 197.804609)"><g><path d="M 0.875 -5.59375 L 3 -5.59375 C 3.25 -5.59375 3.476562 -5.550781 3.6875 -5.46875 C 3.90625 -5.382812 4.085938 -5.269531 4.234375 -5.125 C 4.390625 -4.976562 4.507812 -4.800781 4.59375 -4.59375 C 4.675781 -4.394531 4.71875 -4.179688 4.71875 -3.953125 C 4.71875 -3.796875 4.695312 -3.648438 4.65625 -3.515625 C 4.625 -3.390625 4.578125 -3.273438 4.515625 -3.171875 C 4.460938 -3.066406 4.398438 -2.972656 4.328125 -2.890625 C 4.253906 -2.816406 4.175781 -2.753906 4.09375 -2.703125 C 3.914062 -2.554688 3.710938 -2.457031 3.484375 -2.40625 L 4.84375 0 L 4.40625 0 L 3.078125 -2.3125 L 1.28125 -2.3125 L 1.28125 0 L 0.875 0 Z M 3 -2.71875 C 3.195312 -2.71875 3.375 -2.75 3.53125 -2.8125 C 3.695312 -2.875 3.835938 -2.957031 3.953125 -3.0625 C 4.078125 -3.175781 4.164062 -3.304688 4.21875 -3.453125 C 4.28125 -3.609375 4.3125 -3.773438 4.3125 -3.953125 C 4.3125 -4.140625 4.28125 -4.304688 4.21875 -4.453125 C 4.164062 -4.609375 4.078125 -4.738281 3.953125 -4.84375 C 3.835938 -4.957031 3.695312 -5.046875 3.53125 -5.109375 C 3.375 -5.171875 3.195312 -5.203125 3 -5.203125 L 1.28125 -5.203125 L 1.28125 -2.71875 Z M 3 -2.71875 "/></g></g></g><g fill="#bc9c22" fill-opacity="1"><g transform="translate(173.171374, 197.804609)"><g><path d="M 2.203125 -1.953125 L 0.125 -5.59375 L 0.59375 -5.59375 L 2.40625 -2.40625 L 4.203125 -5.59375 L 4.6875 -5.59375 L 2.59375 -1.953125 L 2.59375 0 L 2.203125 0 Z M 2.203125 -1.953125 "/></g></g></g><g fill="#bc9c22" fill-opacity="1"><g transform="translate(181.171589, 197.804609)"><g/></g></g><g fill="#bc9c22" fill-opacity="1"><g transform="translate(185.971712, 197.804609)"><g><path d="M 0.203125 -5.59375 L 0.640625 -5.59375 L 2.203125 -0.640625 L 3.796875 -5.59375 L 4.203125 -5.59375 L 5.796875 -0.640625 L 7.359375 -5.59375 L 7.796875 -5.59375 L 6 0 L 5.59375 0 L 4 -4.953125 L 2.40625 0 L 2 0 Z M 0.203125 -5.59375 "/></g></g></g><g fill="#bc9c22" fill-opacity="1"><g transform="translate(197.17202, 197.804609)"><g><path d="M 2.484375 -5.59375 L 2.875 -5.59375 L 5.203125 0 L 4.765625 0 L 4.078125 -1.640625 L 1.28125 -1.640625 L 0.59375 0 L 0.15625 0 Z M 3.921875 -2.046875 L 2.6875 -5.046875 L 1.4375 -2.046875 Z M 3.921875 -2.046875 "/></g></g></g><g fill="#bc9c22" fill-opacity="1"><g transform="translate(205.732245, 197.804609)"><g><path d="M 2 -5.203125 L 0.15625 -5.203125 L 0.15625 -5.59375 L 4.234375 -5.59375 L 4.234375 -5.203125 L 2.40625 -5.203125 L 2.40625 0 L 2 0 Z M 2 -5.203125 "/></g></g></g><g fill="#bc9c22" fill-opacity="1"><g transform="translate(213.332447, 197.804609)"><g><path d="M 3.3125 0.078125 C 2.925781 0.078125 2.5625 0.00390625 2.21875 -0.140625 C 1.875 -0.296875 1.570312 -0.503906 1.3125 -0.765625 C 1.050781 -1.023438 0.847656 -1.328125 0.703125 -1.671875 C 0.554688 -2.023438 0.484375 -2.398438 0.484375 -2.796875 C 0.484375 -3.203125 0.554688 -3.578125 0.703125 -3.921875 C 0.847656 -4.273438 1.050781 -4.582031 1.3125 -4.84375 C 1.570312 -5.101562 1.875 -5.304688 2.21875 -5.453125 C 2.5625 -5.609375 2.925781 -5.6875 3.3125 -5.6875 C 3.695312 -5.6875 4.03125 -5.617188 4.3125 -5.484375 C 4.601562 -5.359375 4.84375 -5.222656 5.03125 -5.078125 C 5.25 -4.898438 5.4375 -4.703125 5.59375 -4.484375 L 5.3125 -4.234375 C 5.175781 -4.429688 5.015625 -4.609375 4.828125 -4.765625 C 4.660156 -4.890625 4.453125 -5.003906 4.203125 -5.109375 C 3.953125 -5.222656 3.65625 -5.28125 3.3125 -5.28125 C 2.976562 -5.28125 2.660156 -5.210938 2.359375 -5.078125 C 2.066406 -4.953125 1.804688 -4.78125 1.578125 -4.5625 C 1.359375 -4.34375 1.1875 -4.082031 1.0625 -3.78125 C 0.9375 -3.476562 0.875 -3.148438 0.875 -2.796875 C 0.875 -2.441406 0.9375 -2.113281 1.0625 -1.8125 C 1.1875 -1.519531 1.359375 -1.257812 1.578125 -1.03125 C 1.804688 -0.8125 2.066406 -0.632812 2.359375 -0.5 C 2.660156 -0.375 2.976562 -0.3125 3.3125 -0.3125 C 3.65625 -0.3125 3.953125 -0.363281 4.203125 -0.46875 C 4.460938 -0.582031 4.675781 -0.707031 4.84375 -0.84375 C 5.039062 -0.988281 5.210938 -1.160156 5.359375 -1.359375 L 5.640625 -1.125 C 5.472656 -0.894531 5.273438 -0.691406 5.046875 -0.515625 C 4.847656 -0.359375 4.601562 -0.21875 4.3125 -0.09375 C 4.03125 0.0195312 3.695312 0.078125 3.3125 0.078125 Z M 3.3125 0.078125 "/></g></g></g><g fill="#bc9c22" fill-opacity="1"><g transform="translate(222.53269, 197.804609)"><g><path d="M 0.875 -5.59375 L 1.28125 -5.59375 L 1.28125 -3.046875 L 4.6875 -3.046875 L 4.6875 -5.59375 L 5.078125 -5.59375 L 5.078125 0 L 4.6875 0 L 4.6875 -2.640625 L 1.28125 -2.640625 L 1.28125 0 L 0.875 0 Z M 0.875 -5.59375 "/></g></g></g><g fill="#bc9c22" fill-opacity="1"><g transform="translate(231.692934, 197.804609)"><g><path d="M 0.875 -5.59375 L 4.640625 -5.59375 L 4.640625 -5.203125 L 1.28125 -5.203125 L 1.28125 -3.125 L 4 -3.125 L 4 -2.71875 L 1.28125 -2.71875 L 1.28125 -0.40625 L 4.71875 -0.40625 L 4.71875 0 L 0.875 0 Z M 0.875 -5.59375 "/></g></g></g><g fill="#bc9c22" fill-opacity="1"><g transform="translate(239.933155, 197.804609)"><g><path d="M 2.203125 0.078125 C 1.890625 0.078125 1.617188 0.0351562 1.390625 -0.046875 C 1.160156 -0.128906 0.96875 -0.226562 0.8125 -0.34375 C 0.632812 -0.457031 0.484375 -0.597656 0.359375 -0.765625 L 0.640625 -1.046875 C 0.742188 -0.898438 0.867188 -0.78125 1.015625 -0.6875 C 1.140625 -0.59375 1.300781 -0.503906 1.5 -0.421875 C 1.695312 -0.347656 1.929688 -0.3125 2.203125 -0.3125 C 2.679688 -0.3125 3.039062 -0.421875 3.28125 -0.640625 C 3.519531 -0.859375 3.640625 -1.140625 3.640625 -1.484375 C 3.640625 -1.671875 3.59375 -1.828125 3.5 -1.953125 C 3.414062 -2.078125 3.300781 -2.179688 3.15625 -2.265625 C 3.007812 -2.359375 2.84375 -2.4375 2.65625 -2.5 C 2.46875 -2.5625 2.273438 -2.625 2.078125 -2.6875 C 1.878906 -2.75 1.6875 -2.816406 1.5 -2.890625 C 1.3125 -2.972656 1.144531 -3.070312 1 -3.1875 C 0.863281 -3.300781 0.75 -3.4375 0.65625 -3.59375 C 0.5625 -3.757812 0.515625 -3.960938 0.515625 -4.203125 C 0.515625 -4.398438 0.554688 -4.585938 0.640625 -4.765625 C 0.722656 -4.953125 0.835938 -5.109375 0.984375 -5.234375 C 1.140625 -5.367188 1.328125 -5.476562 1.546875 -5.5625 C 1.765625 -5.644531 2.007812 -5.6875 2.28125 -5.6875 C 2.539062 -5.6875 2.769531 -5.648438 2.96875 -5.578125 C 3.164062 -5.503906 3.332031 -5.421875 3.46875 -5.328125 C 3.632812 -5.234375 3.769531 -5.125 3.875 -5 L 3.59375 -4.71875 C 3.507812 -4.820312 3.398438 -4.914062 3.265625 -5 C 3.160156 -5.070312 3.023438 -5.132812 2.859375 -5.1875 C 2.691406 -5.25 2.5 -5.28125 2.28125 -5.28125 C 2.0625 -5.28125 1.863281 -5.25 1.6875 -5.1875 C 1.519531 -5.132812 1.378906 -5.054688 1.265625 -4.953125 C 1.148438 -4.859375 1.0625 -4.742188 1 -4.609375 C 0.945312 -4.484375 0.921875 -4.347656 0.921875 -4.203125 C 0.921875 -4.003906 0.960938 -3.84375 1.046875 -3.71875 C 1.140625 -3.59375 1.257812 -3.484375 1.40625 -3.390625 C 1.550781 -3.304688 1.71875 -3.234375 1.90625 -3.171875 C 2.09375 -3.109375 2.285156 -3.046875 2.484375 -2.984375 C 2.679688 -2.921875 2.875 -2.851562 3.0625 -2.78125 C 3.25 -2.707031 3.410156 -2.613281 3.546875 -2.5 C 3.691406 -2.382812 3.8125 -2.242188 3.90625 -2.078125 C 4 -1.921875 4.046875 -1.722656 4.046875 -1.484375 C 4.046875 -1.265625 4.003906 -1.054688 3.921875 -0.859375 C 3.835938 -0.671875 3.710938 -0.503906 3.546875 -0.359375 C 3.390625 -0.222656 3.195312 -0.113281 2.96875 -0.03125 C 2.738281 0.0390625 2.484375 0.078125 2.203125 0.078125 Z M 2.203125 0.078125 "/></g></g></g></svg>